<svg xmlns="http://www.w3.org/2000/svg" xmlns:xlink="http://www.w3.org/1999/xlink" width="178" height="193" viewBox="0 0 178 193">
  <defs>
    <linearGradient id="linear-gradient" x1="0.941" y1="0.958" x2="0.07" y2="0.076" gradientUnits="objectBoundingBox">
      <stop offset="0" stop-color="#f24f04"/>
      <stop offset="1" stop-color="#f26b04"/>
    </linearGradient>
  </defs>
  <g id="Group_34836" data-name="Group 34836" transform="translate(-99 -312)" opacity="0.72">
    <g id="Group_5" data-name="Group 5" transform="translate(8.851 -8.143)">
      <rect id="Rectangle_3" data-name="Rectangle 3" width="59" height="60" rx="22" transform="translate(150.149 374.143)" opacity="0.85" fill="url(#linear-gradient)"/>
      <rect id="Rectangle_2" data-name="Rectangle 2" width="101" height="101" rx="26" transform="translate(129.149 320.143)" fill="url(#linear-gradient)"/>
      <g id="Group_4" data-name="Group 4" transform="translate(149.779 345.628)">
        <path id="Path_4" data-name="Path 4" d="M1202.979,552.127h-44.984a2,2,0,0,1-1.314-3.5,2,2,0,0,1,1.135-.485c.06-.005.12-.005.179-.008h45c.22,0,.439.011.658.034a6.567,6.567,0,0,1,5.818,7.583,7.977,7.977,0,0,1-.353,1.343,9.815,9.815,0,0,1-8.241,6.532c-.34.036-.682.052-1.024.054h-14.293c-.367,1.378-.733,2.757-1.11,4.133-.1.341-.208.678-.339,1.008a10.146,10.146,0,0,1-8.794,6.39,8.231,8.231,0,0,1-1.232-.005,6.8,6.8,0,0,1-6.133-7.759,7.154,7.154,0,0,1,.158-.763l1.476-5.51c.009-.036.02-.072.032-.108s.017-.051.031-.088l0,0,.006-.015,0-.009q.033-.084.074-.165l.025-.048,0-.009.01-.019,0-.008v0l0-.008,0-.006.007-.012.005-.009.005-.009.007-.012,0-.006.005-.009a1.995,1.995,0,0,1,.888-.771l.009,0h0a1.96,1.96,0,0,1,.28-.1q.061-.016.123-.029h0l.017,0,.01,0h.008l.018,0a1.61,1.61,0,0,1,.169-.022l.065,0,.083,0h.022c4.085,0,23.185.028,28.393,0,.2,0,.408-.015.61-.038a5.831,5.831,0,0,0,4.222-2.628,5.859,5.859,0,0,0,.724-1.626l0,.011.019-.073a2.618,2.618,0,0,0,.062-.915,2.574,2.574,0,0,0-2.26-2.271,2.839,2.839,0,0,0-.3-.017Zm-21.557,11.551h-8.377c-.366,1.356-.734,2.711-1.088,4.07a2.858,2.858,0,0,0-.068,1,2.8,2.8,0,0,0,2.581,2.484,4.266,4.266,0,0,0,.53,0,6.151,6.151,0,0,0,5.442-4c.068-.184.127-.372.179-.561l.8-2.99Zm-5.179-27.1.038-.1a17.573,17.573,0,0,1,14.724-11.359c.552-.055,1.106-.082,1.66-.087,5.642-.015,11.285-.04,16.927,0a6.978,6.978,0,0,1,.757.055,6.568,6.568,0,0,1,5.615,7.654,8.238,8.238,0,0,1-.371,1.347,9.816,9.816,0,0,1-8.208,6.435c-.34.036-.682.052-1.024.054h-45.431a2,2,0,0,1-1.314-3.5,2,2,0,0,1,1.135-.485c.06-.005.119-.005.179-.008Zm4.39,0s24.582.006,25.786,0l.185,0c.2-.01.4-.028.606-.057a5.82,5.82,0,0,0,4.766-4.23l0,.011.019-.073a2.619,2.619,0,0,0,.062-.915,2.574,2.574,0,0,0-1.586-2.1,2.62,2.62,0,0,0-.934-.19q-8.46-.061-16.92,0c-.428.006-.856.029-1.282.074a13.594,13.594,0,0,0-10.284,6.62c-.165.28-.319.567-.464.858l0,0Z" transform="translate(-1155.998 -525.01)" fill="#fff" fill-rule="evenodd"/>
        <path id="Path_5" data-name="Path 5" d="M1267.726,691.327l-.531,1.991h-4.139l.533-1.991Z" transform="translate(-1238.165 -652.659)" fill="#ccc" fill-rule="evenodd"/>
      </g>
    </g>
    <text id="FoodXa" transform="translate(188 467)" fill="#26374b" font-size="35" font-family="SegoeUI-Bold, Segoe UI" font-weight="700"><tspan x="-62.216" y="0">Food</tspan><tspan y="0" fill="#f24f04">X</tspan><tspan y="0">a</tspan></text>
    <text id="Food_Delivery_Service" data-name="Food Delivery Service" transform="translate(188 500)" fill="#6c7c8e" font-size="18" font-family="SegoeUI-Semibold, Segoe UI" font-weight="600"><tspan x="-88.427" y="0">Food Delivery Service</tspan></text>
  </g>
</svg>
