<svg xmlns="http://www.w3.org/2000/svg" width="304.832" height="151.583" viewBox="0 0 304.832 151.583">
  <g id="Group_17" data-name="Group 17" transform="matrix(0.966, 0.259, -0.259, 0.966, 41.803, -62.116)">
    <g id="Group_14" data-name="Group 14" transform="translate(239.859)">
      <g id="Group_13" data-name="Group 13" transform="translate(0)">
        <path id="Path_24" data-name="Path 24" d="M14.106,7.151,4.868,1.067,4.407,0,4.335.715,3.789.356l-.165.881L3.129.8l.329,1.319L0,20.589l1.281.3L4.809,4.1l.3.418-.034-.624,7.554,5.945Z" transform="translate(18.343)" fill="#e85223"/>
        <g id="Group_12" data-name="Group 12" transform="translate(19.245 1.822)">
          <path id="Path_25" data-name="Path 25" d="M0,4.857,1.229,5.93,2.323.724.91,0Z" transform="translate(0 9.088)" fill="#ff933b"/>
          <path id="Path_26" data-name="Path 26" d="M0,3.71l1.357,1.4.711-3.379L.695,0Z" transform="translate(1.61 1.644)" fill="#ff933b"/>
          <path id="Path_27" data-name="Path 27" d="M0,0,.115,2.9l3.15,2.479L4.2,2.769Z" transform="translate(5.112)" fill="#ff933b"/>
        </g>
        <path id="Path_28" data-name="Path 28" d="M0,0S13.735,11.446,26.935,1.557Z" transform="translate(0.523 25.61)" fill="#84471e"/>
        <path id="Path_29" data-name="Path 29" d="M0,0,4.234,41.166,20.786,40.2,22.34.517Z" transform="translate(3.046 23.426)" fill="#e84b31"/>
        <path id="Path_30" data-name="Path 30" d="M0,1.321C.974,19.886,3.017,37,6.719,36.89c4.544-.131,5.572-20.5,5.829-36.89Z" transform="translate(11.954 25.306)" fill="#f46438"/>
        <path id="Path_31" data-name="Path 31" d="M22.112,5.58.837,7.14,0,0,22.263,1.371Z" transform="translate(3.02 24.193)" fill="#d63f2b"/>
        <path id="Path_32" data-name="Path 32" d="M.262,4.718,0,0,24.271,2.592,24.356,6.2Z" transform="translate(1.63 16.635)" fill="#f4c871"/>
        <path id="Path_33" data-name="Path 33" d="M.524,4.881,0,.168,27.6,0l-.143,6.439Z" transform="translate(0 20.728)" fill="#f4c871"/>
        <path id="Path_34" data-name="Path 34" d="M17.874,0,0,.512.111,1.68l17.764-.6Z" transform="translate(6.572 63.038)" fill="#ff8878"/>
        <path id="Path_35" data-name="Path 35" d="M23.359,3.452l-.03-1.229L1.438,0l.921,3.5L0,3.986.39,6.943,24.785,8.07l.087-4.617Z" transform="translate(1.473 17.591)" fill="#ffe888"/>
        <path id="Path_36" data-name="Path 36" d="M14.3,0,0,.985l.412.382L15.241.924Z" transform="translate(10.589 20.128)" fill="#f4c871"/>
        <path id="Path_37" data-name="Path 37" d="M0,.256,10.858,0l.272,4.915L.317,4Z" transform="translate(1.025 20.975)" fill="#f4c871"/>
        <path id="Path_38" data-name="Path 38" d="M0,0,.481,3.657,3.1,3.641,3.265.186Z" transform="translate(2.563 17.52)" fill="#ffdc7b"/>
      </g>
    </g>
    <g id="Group_16" data-name="Group 16" transform="translate(0 35.817)">
      <path id="Path_39" data-name="Path 39" d="M216.723,30.615C181.309,50.573,133.46,12.1,112.54,3.813,85.278-6.985,55.262,5.269,25.1,39.057c0,0-60.8,104.34,6.861,33.488,64.5-67.538,67.668-48.033,130.309-24.5,26.854,10.087,46.7,2.078,60.618-10.357A61.678,61.678,0,0,1,216.723,30.615Z" transform="translate(0 28.49)" fill="#6b3c34"/>
      <path id="Path_40" data-name="Path 40" d="M164.425,24.9C102.962-1.54,100.706-21.175,33.109,43.255,17.2,58.422,8.174,65.061,3.729,66.273-3.655,84.447-2.8,94.287,31.959,57.888c64.5-67.538,67.668-48.033,130.309-24.5,26.854,10.087,46.7,2.078,60.618-10.357-.7-.689-1.383-1.45-2.06-2.188C206.769,30.414,188.082,35.084,164.425,24.9Z" transform="translate(0.003 43.148)" fill="#512822"/>
      <path id="Path_41" data-name="Path 41" d="M27.909,0C20.508,19.416,10.83,30.872,0,36.9c.361,3.881.54,7.764.525,11.62C23.257,32.371,32.941,2.808,32.941,2.808Z" transform="translate(216.506 22.341)" fill="#ffdeb3"/>
      <path id="Path_42" data-name="Path 42" d="M0,43.536c.013.919.057,1.844.055,2.765C22.786,30.156,32.471.593,32.471.593L31.407,0C28.865,6.724,19.084,29.8,0,43.536Z" transform="translate(216.976 24.556)" fill="#f9ad8f"/>
      <path id="Path_43" data-name="Path 43" d="M1.458,11.572,0,1.729,5.319,0,8.664,8.666Z" transform="translate(205.274 62.154)" fill="#512822"/>
      <path id="Path_44" data-name="Path 44" d="M11.679,4.258,4.9,0,0,3.563,5.6,9.792Z" transform="translate(216.915 55.335)" fill="#f9ad8f"/>
      <path id="Path_45" data-name="Path 45" d="M.081,6.955c-.872.366,5.557,16.351,6.775,15.832,5.218-1.561,8.44-5.366,13.616-10.239C19.093,6.975,17.4,3.161,12.9,0A27.622,27.622,0,0,0,.081,6.955Z" transform="translate(205.482 54.6)" fill="#9e655e"/>
      <path id="Path_46" data-name="Path 46" d="M7.676,6.807A13.923,13.923,0,0,1,0,7.828C1.586,12.553,5.224,20.9,6.11,20.52c5.218-1.561,8.44-5.366,13.616-10.239C18.66,5.971,17.391,2.717,14.793,0A13.14,13.14,0,0,1,7.676,6.807Z" transform="translate(206.229 56.867)" fill="#844742"/>
      <g id="Group_15" data-name="Group 15" transform="translate(239.746)">
        <path id="Path_47" data-name="Path 47" d="M22.839.051C20.721.789,1.6,5.743,3.533,16.555,4.714,23.133,2.531,29.3,0,32.469L11.518,25.02c2.427-3.945,9.439-7.419,9.879-8.845S25.874-1,22.839.051Z" transform="translate(0 2.396)" fill="#ffdeb3"/>
        <path id="Path_48" data-name="Path 48" d="M2.4,5.412C6.3,3.322,13.942,4.073,13.661,2.224,13.221-.642,10.026-.022,3.248.252S2.4,5.412,2.4,5.412Z" transform="translate(12.642 15.557)" fill="#ffdeb3"/>
        <path id="Path_49" data-name="Path 49" d="M3.519,8.021c3.735-2.328,8.507-4.411,7.965-6.19C10.264-2.218,6.413,1.4,2.429,3.6-3.613,6.924,3.519,8.021,3.519,8.021Z" transform="translate(18.524)" fill="#ffdeb3"/>
        <path id="Path_50" data-name="Path 50" d="M10.5.364C6.816.912,3.41,2.66,1.977.638-.464-2.792-.391,8.558.83,12.113,2.964,18.345,10.5.364,10.5.364Z" transform="translate(3.155 8.787)" fill="#ffdeb3"/>
        <path id="Path_51" data-name="Path 51" d="M3.207,7.261c3.987-1.855,8.96-3.328,8.664-5.163-.673-4.2-4.94-1.074-9.158.609C-3.666,5.262,3.207,7.261,3.207,7.261Z" transform="translate(15.816 7.964)" fill="#ffdeb3"/>
      </g>
    </g>
  </g>
</svg>
