<svg xmlns="http://www.w3.org/2000/svg" width="238.635" height="158.633" viewBox="0 0 238.635 158.633">
  <g id="Group_11" data-name="Group 11" transform="matrix(0.259, -0.966, 0.966, 0.259, -7.459, 100.571)">
    <g id="Group_8" data-name="Group 8" transform="translate(28.429)">
      <path id="Path_6" data-name="Path 6" d="M36.361,5.035,2.449,23.458S-8.532,17.428,16.012,4.387C35.278-5.848,36.361,5.035,36.361,5.035Z" transform="translate(0.389)" fill="#ed914c"/>
      <path id="Path_7" data-name="Path 7" d="M25.543,2.555,1.13,16.112s-6.4-2.795,11.241-12.434C26.21-3.882,25.543,2.555,25.543,2.555Z" transform="translate(4.599 2.871)" fill="#ffae55"/>
      <path id="Path_8" data-name="Path 8" d="M0,19.29,33.436,0S44.556,5.758,20.35,19.422C1.348,30.147,0,19.29,0,19.29Z" transform="translate(5.541 8.932)" fill="#ffae55"/>
      <path id="Path_9" data-name="Path 9" d="M20.342,12.941a129.435,129.435,0,0,1,14.337-4.9C38.224,2.481,33.436,0,33.436,0L0,19.29a5.753,5.753,0,0,0,1.661,3.1C5.541,19.668,12.341,16.168,20.342,12.941Z" transform="translate(5.541 8.932)" fill="#ed914c"/>
      <path id="Path_10" data-name="Path 10" d="M.314,22.25C1.326,24.1,3.416,24.9,21.14,15.056S39.306,3,38.29,1.149,35.187-1.5,17.466,8.338-.7,20.395.314,22.25Z" transform="translate(2.05 4.725)" fill="#723828"/>
      <path id="Path_11" data-name="Path 11" d="M44.72.582,39.733,0,29.68,6.648l-7.171,3.41-5.5,3.073L2.823,19.8,0,26.1l9.958-6.458,7.3-2.946L23.8,12.7,35.384,9.843,38.508,3.7Z" transform="translate(0 7.8)" fill="#d6cb41"/>
      <path id="Path_12" data-name="Path 12" d="M.075,15.642c.386,1.059,1.652,1.413,14.993-5.614S29.044,1.644,28.656.584,27-.832,13.667,6.193-.313,14.582.075,15.642Z" transform="translate(7.947 6.212)" fill="#894631"/>
      <path id="Path_13" data-name="Path 13" d="M13.311,1.459A32.9,32.9,0,0,1,8.224,5.424C6.383,6.353,0,8.612,0,8.612S3.171.569,4.5.082,13.311,1.459,13.311,1.459Z" transform="translate(13.407 7.427)" fill="#ed914c"/>
      <path id="Path_14" data-name="Path 14" d="M13.309,1.46A32.962,32.962,0,0,1,8.222,5.425C6.382,6.352,0,8.612,0,8.612S3.169.571,4.5.082,13.309,1.46,13.309,1.46Z" transform="translate(13.922 8.068)" fill="#ffd13e"/>
    </g>
    <g id="Group_10" data-name="Group 10" transform="translate(0 4.104)">
      <g id="Group_9" data-name="Group 9" transform="translate(16.243)">
        <path id="Path_15" data-name="Path 15" d="M28.1.8c-.03,2.46,1.636,24.125-11.38,25.444C8.8,27.047,2.634,31.255,0,34.906L4.066,20.472C7.617,16.7,8.892,8.235,10.343,7.334S28.146-2.713,28.1.8Z" transform="translate(0 6.931)" fill="#ffdeb3"/>
        <path id="Path_16" data-name="Path 16" d="M1.375,12.863C2.255,8.115-1.5.307.7.035c3.423-.428,3.937,3.12,6.21,10.341S1.375,12.863,1.375,12.863Z" transform="translate(8.666 8.821)" fill="#ffdeb3"/>
        <path id="Path_17" data-name="Path 17" d="M0,10.309C1.218,5.651,1.757-.013,3.982,0,9.054.026,6.409,5.2,5.431,10.08,3.958,17.466,0,10.309,0,10.309Z" transform="translate(22.082)" fill="#ffdeb3"/>
        <path id="Path_18" data-name="Path 18" d="M11.694,0c.778,4.042.1,8.173,2.941,9.051,4.816,1.5-8.093,4.95-12.6,4.775C-5.848,13.506,11.694,0,11.694,0Z" transform="translate(12.298 19.484)" fill="#ffdeb3"/>
        <path id="Path_19" data-name="Path 19" d="M0,10.764C.583,5.99.355.3,2.553.045c5.026-.6,3.1,4.865,2.8,9.82C4.88,17.375,0,10.764,0,10.764Z" transform="translate(15.052 4.956)" fill="#ffdeb3"/>
      </g>
      <path id="Path_20" data-name="Path 20" d="M0,4.468,3.326,0,9.464,5.389,6.481,11.295Z" transform="translate(16.576 29.595)" fill="#b4c2cc"/>
      <path id="Path_21" data-name="Path 21" d="M113.606,156.875C-7.612,124.593,16.042,16.969,26.1,8.135L16.614,0C-49.465,121.65,102.9,188.93,102.9,188.93Z" transform="translate(0 31.301)" fill="#434e5b"/>
      <path id="Path_22" data-name="Path 22" d="M106.481,178.224C81.335,165.522-25.645,104.327,19.876,2.8L16.614,0C-49.465,121.65,102.9,188.93,102.9,188.93Z" transform="translate(0 31.301)" fill="#323e49"/>
      <path id="Path_23" data-name="Path 23" d="M2.733,4.681A2.321,2.321,0,0,0,4.522,1.929,2.324,2.324,0,0,0,1.834.041,2.323,2.323,0,0,0,.045,2.8,2.322,2.322,0,0,0,2.733,4.681Z" transform="translate(15.712 40.369)" fill="#83919e"/>
    </g>
  </g>
</svg>
