<svg xmlns="http://www.w3.org/2000/svg" width="211.358" height="149.721" viewBox="0 0 211.358 149.721">
  <g id="Group_34837" data-name="Group 34837" transform="matrix(0.966, -0.259, 0.259, 0.966, -705.068, 136.047)">
    <path id="Path_113" data-name="Path 113" d="M709.333,144.3l152.634-36.654s36.782,35.26-73.382,60.636C702.126,188.189,709.333,144.3,709.333,144.3Z" transform="translate(20.065 36.098)" fill="#ed914c"/>
    <path id="Path_114" data-name="Path 114" d="M716.82,139.162,827,111.627s22.186,17.716-57.249,37C707.42,163.753,716.82,139.162,716.82,139.162Z" transform="translate(38.952 46.649)" fill="#ffae55"/>
    <path id="Path_115" data-name="Path 115" d="M864.156,122.176,712.485,162.738s-37.621-34.334,71.864-62.511C870.3,78.111,864.156,122.176,864.156,122.176Z" transform="translate(12.271 0)" fill="#ffae55"/>
    <path id="Path_116" data-name="Path 116" d="M777.559,115.36a525.587,525.587,0,0,1-61.486,4.138c-19.785,18.121-3.587,32.907-3.587,32.907l151.671-40.562A23.4,23.4,0,0,0,860.9,97.918C842.792,104.526,812.389,111.109,777.559,115.36Z" transform="translate(12.27 10.333)" fill="#ed914c"/>
    <path id="Path_117" data-name="Path 117" d="M877.284,109.426c-2.029-8.356-9.393-13.691-89.4,6.32-79.982,20-84.058,28.214-82.022,36.567s9.4,13.7,89.375-6.309S879.313,117.778,877.284,109.426Z" transform="translate(10.317 21.001)" fill="#723828"/>
    <path id="Path_118" data-name="Path 118" d="M701.611,150.343l18.986,7.546,46.493-15.522,31.758-5.844,24.83-6.282,62.774-11.255,17.718-21.759L858.248,112.11l-31.79,3.877-29.9,8.77-48.513-.955L729.3,144.647Z" transform="translate(0 8.499)" fill="#d6cb41"/>
    <path id="Path_119" data-name="Path 119" d="M838.059,110.585c-.409-4.569-5-7.294-64.817,6.258-59.792,13.545-63.737,18.22-63.332,22.788s5.017,7.305,64.8-6.247S838.464,115.157,838.059,110.585Z" transform="translate(21.918 34)" fill="#894631"/>
    <path id="Path_120" data-name="Path 120" d="M721.139,126.655s15.961-8.513,24.164-10.217,35.658-3.857,35.658-3.857-20.927,28.251-26.66,28.769S721.139,126.655,721.139,126.655Z" transform="translate(51.729 49.176)" fill="#ed914c"/>
    <path id="Path_121" data-name="Path 121" d="M720.772,125.813s15.957-8.51,24.164-10.214,35.658-3.857,35.658-3.857-20.927,28.251-26.667,28.772S720.772,125.813,720.772,125.813Z" transform="translate(50.757 46.953)" fill="#ffd13e"/>
  </g>
</svg>
