<svg xmlns="http://www.w3.org/2000/svg" xmlns:xlink="http://www.w3.org/1999/xlink" width="334" height="315.446" viewBox="0 0 334 315.446">

  <g id="Group_3825" data-name="Group 3825" transform="translate(-20 -170)">

    <g id="Group_3824" data-name="Group 3824" transform="translate(69.627 116.912)">
      <g id="Group_3813" data-name="Group 3813" transform="translate(20.509 169.422)">
       
     
       
      </g>
     
   
    </g>
    <g id="Group_3823" data-name="Group 3823" transform="translate(44.839 70.495)">
      <g id="Group_3813-2" data-name="Group 3813" transform="translate(20 170)">
        <path id="Path_3964" data-name="Path 3964" d="M17,0H229a17,17,0,0,1,17,17v99a17,17,0,0,1-17,17H17A17,17,0,0,1,0,116V17A17,17,0,0,1,17,0Z" transform="translate(0.16 -0.495)" fill="#343241"/>
        <g id="Mask_Group_1-2" data-name="Mask Group 1" transform="translate(0 0)" clip-path="url(#clip-path-3)">
          <path id="Path_3962-2" data-name="Path 3962" d="M259.089,437.944c-1.43,8.646-5.634,12.57-13.964,17.183-28.341,3.67-11.44,12.254-20.716,22.4-24.207,6.777-2.332,13.377-1.666,18.583,1.878,8.865,6.032,10.844,14.264,12.59,21.529,1.868,7.769,3.343,13.9,12.786,14.793a35.2,35.2,0,0,1,8.684,1.94,27.88,27.88,0,0,1,14.408,11.45,22.048,22.048,0,0,1,2.2,19.641c-4.842,12.529-20.778,18.513-42.635,16.006-17.25-1.98-27.635,2.949-37.678,7.715C277.875,434.24,270.07,437.944,259.089,437.944Zm45.858-102.259a22.363,22.363,0,0,0-7.268,1.274c-9.663,3.325-17.849,12.2-21.363,23.148-4.732,14.748-8.793,23.317-17.855,29.221-12.132,7.9-18.012,14.948-19.661,23.552a22.262,22.262,0,0,0,4.041,16.593,16.381,16.381,0,0,0,11.934,6.626c12.966,1.117,21.532-2.946,30.6-7.249,10.253-4.865,20.856-9.9,38.577-7.865,21.058,2.417,36.349-3.176,40.9-14.957a20.407,20.407,0,0,0-2.068-18.173c-4.409-7.125-12.368-11.722-21.838-12.614-10.621-1-12.379-8.312-14.24-16.054-1.677-6.973-3.577-14.876-11.912-20.548A17.286,17.286,0,0,0,304.946,335.685Z" transform="translate(-302.058 -253.264)" fill="#fff"/>
        </g>
      
      </g>
    
      <g id="Group_111-2" data-name="Group 111" transform="translate(230.103 181.062)">
        <rect id="Rectangle_39-2" data-name="Rectangle 39" width="6.501" height="11.683" transform="translate(8.771 1.589)" fill="#e2e2e2"/>
      </g>
    </g>
    <g id="Group_3822" data-name="Group 3822">
      <g id="Group_3813-3" data-name="Group 3813" transform="translate(27 35)">
        <rect id="Rectangle_616" data-name="Rectangle 616" width="334" height="179" rx="26" transform="translate(-7 135)" fill="#f24f04"/>
        <g id="Mask_Group_1-3" data-name="Mask Group 1" clip-path="url(#clip-path-5)">
          <path id="Path_3959" data-name="Path 3959" d="M378.11,388.8c-25.871-2.435-10.344-32.707-34.935-49.441-17.809-12.118-45.378,3.213-53.873,29.694-6.606,20.589-12.183,31.487-23.755,39.026-15.047,9.8-24.625,19.5-27.149,32.663-2.338,12.194,4.69,31.263,22.667,32.813,37.86,3.266,48.827-25.651,93.767-20.495,33.537,3.847,51.263-7.088,56.636-20.993C418.389,414.149,404.807,391.308,378.11,388.8Z" transform="translate(-77.187 -131.824)" fill="#fcc342"/>
          <path id="Path_3960-2" data-name="Path 3960" d="M267.012,474.934c-1.939,0-3.949-.085-6.044-.265a24.406,24.406,0,0,1-17.779-9.867,32.091,32.091,0,0,1-5.893-24.276c2.363-12.323,10.628-22.31,27.638-33.392,11.724-7.639,17.045-18.935,23.3-38.429,4.977-15.512,16.616-28.09,30.375-32.824,9.19-3.162,18.139-2.259,25.2,2.546,12.02,8.179,14.7,19.342,17.072,29.192,2.533,10.534,4.533,18.853,17.337,20.059,13.547,1.275,24.959,7.893,31.311,18.157,5.2,8.4,6.284,18.1,2.989,26.632-6.565,16.989-28.174,25.1-57.811,21.7-23.39-2.685-37.472,4-51.09,10.461C292.485,469.912,281.9,474.934,267.012,474.934Zm62.181-138.659A30.321,30.321,0,0,0,319.338,338c-13.1,4.509-24.2,16.536-28.967,31.388-6.416,20-11.923,31.617-24.211,39.623-16.45,10.718-24.423,20.269-26.66,31.935-1.4,7.28.807,16.322,5.479,22.5a22.212,22.212,0,0,0,16.182,8.984c17.581,1.514,29.2-3.994,41.49-9.829,13.9-6.6,28.28-13.42,52.309-10.664,28.554,3.278,49.288-4.306,55.461-20.281,3.04-7.868,2.018-16.85-2.8-24.642-5.978-9.661-16.771-15.895-29.612-17.1-14.4-1.355-16.785-11.271-19.309-21.768-2.274-9.455-4.85-20.171-16.152-27.862A23.439,23.439,0,0,0,329.193,336.275Z" transform="translate(-76.187 -156.824)" fill="#fff"/>
          <path id="Path_3962-3" data-name="Path 3962" d="M384.2,334.027c1.939,0,3.949.085,6.044.265a24.406,24.406,0,0,1,17.779,9.867,32.091,32.091,0,0,1,5.893,24.276c-2.363,12.323-10.628,22.31-27.638,33.392-11.724,7.639-17.045,18.935-23.3,38.429-4.977,15.512-16.616,28.09-30.375,32.824-9.19,3.162-18.139,2.259-25.2-2.546-12.02-8.179-14.7-19.342-17.072-29.192-2.533-10.534-4.533-18.853-17.337-20.059-13.547-1.275-24.959-7.893-31.311-18.157-5.2-8.4-6.284-18.1-2.989-26.632,6.565-16.989,28.174-25.1,57.811-21.7,23.39,2.685,37.472-4,51.09-10.461C358.732,339.049,369.315,334.027,384.2,334.027ZM322.024,472.686a30.321,30.321,0,0,0,9.855-1.728c13.1-4.509,24.2-16.536,28.967-31.388,6.416-20,11.923-31.617,24.211-39.623,16.45-10.718,24.423-20.269,26.66-31.935,1.4-7.28-.807-16.322-5.479-22.5a22.212,22.212,0,0,0-16.182-8.984c-17.581-1.514-29.2,3.994-41.49,9.829-13.9,6.6-28.28,13.42-52.309,10.664-28.554-3.278-49.288,4.306-55.461,20.281-3.04,7.868-2.018,16.85,2.8,24.642,5.978,9.661,16.771,15.895,29.612,17.1,14.4,1.355,16.785,11.271,19.309,21.768,2.274,9.455,4.85,20.171,16.152,27.862A23.439,23.439,0,0,0,322.024,472.686Z" transform="translate(-365.187 -241.824)" fill="#fff"/>
        </g>
        <g id="Mask_Group_2-3" data-name="Mask Group 2" transform="translate(-27)" clip-path="url(#clip-path-6)">
          <g id="Group_3812-3" data-name="Group 3812" transform="translate(281.46 82.783)" opacity="0.15">
            <path id="Path_3296-3" data-name="Path 3296" d="M267.7,347.779a.016.016,0,1,0-.019-.015A.017.017,0,0,0,267.7,347.779Z" transform="translate(-253.777 -347.607)" fill="#fff"/>
            <path id="Path_3297-3" data-name="Path 3297" d="M273.338,347.779a.016.016,0,1,0,0-.031.016.016,0,1,0,0,.031Z" transform="translate(-252.736 -347.607)" fill="#fff"/>
            <ellipse id="Ellipse_74-3" data-name="Ellipse 74" cx="0.037" cy="0.031" rx="0.037" ry="0.031" transform="translate(27.246 0.125)" fill="#fff"/>
            <path id="Path_3298-3" data-name="Path 3298" d="M284.627,347.811a.048.048,0,1,0-.056-.047A.052.052,0,0,0,284.627,347.811Z" transform="translate(-250.662 -347.607)" fill="#fff"/>
           
            <path id="Path_3923-3" data-name="Path 3923" d="M363.608,505.773a.048.048,0,1,0-.056-.047A.052.052,0,0,0,363.608,505.773Z" transform="translate(-236.098 -347.607)" fill="#fff"/>
            <path id="Path_3924-3" data-name="Path 3924" d="M369.247,505.758a.032.032,0,1,0-.038-.032A.035.035,0,0,0,369.247,505.758Z" transform="translate(-235.055 -347.607)" fill="#fff"/>
            <path id="Path_3925-3" data-name="Path 3925" d="M374.885,505.742a.016.016,0,1,0-.019-.016A.018.018,0,0,0,374.885,505.742Z" transform="translate(-234.012 -347.607)" fill="#fff"/>
            <path id="Path_3926-3" data-name="Path 3926" d="M380.527,505.742a.016.016,0,1,0,0-.031.016.016,0,1,0,0,.031Z" transform="translate(-232.971 -347.607)" fill="#fff"/>
          </g>
        </g>
      </g>
      <g id="Group_3821-3" data-name="Group 3821" transform="translate(0 -9)">
        <text id="Dwayne_Johnson-3" data-name="Azeem Sarwar" transform="translate(188 229)" fill="#fff" font-size="15" font-family="SegoeUI, Segoe UI"><tspan x="-111.453" y="0">Azeem Sarwar</tspan></text>
        <text id="_4871.80-3" data-name="$4871.80" transform="translate(57 318)" fill="#fff" font-size="20" font-family="SegoeUI, Segoe UI"><tspan x="0" y="0">$4871.80</tspan></text>
        <g id="Group_3820-3" data-name="Group 3820" transform="translate(-3 10)">
          <text id="_8745-3" data-name="8745" transform="translate(60 263)" fill="#fff" font-size="12" font-family="SegoeUI, Segoe UI"><tspan x="0" y="0">8745</tspan></text>
          <text id="_1452-3" data-name="1452" transform="translate(165 263)" fill="#fff" font-size="12" font-family="SegoeUI, Segoe UI"><tspan x="0" y="0">1452</tspan></text>
          <circle id="Ellipse_322-3" data-name="Ellipse 322" cx="3.5" cy="3.5" r="3.5" transform="translate(95 255)" fill="#fff"/>
          <circle id="Ellipse_323-3" data-name="Ellipse 323" cx="3.5" cy="3.5" r="3.5" transform="translate(106 255)" fill="#fff"/>
          <circle id="Ellipse_324-3" data-name="Ellipse 324" cx="3.5" cy="3.5" r="3.5" transform="translate(118 255)" fill="#fff"/>
          <circle id="Ellipse_325-3" data-name="Ellipse 325" cx="3.5" cy="3.5" r="3.5" transform="translate(130 255)" fill="#fff"/>
          <circle id="Ellipse_326-3" data-name="Ellipse 326" cx="3.5" cy="3.5" r="3.5" transform="translate(142 255)" fill="#fff"/>
          <circle id="Ellipse_327-3" data-name="Ellipse 327" cx="3.5" cy="3.5" r="3.5" transform="translate(153 255)" fill="#fff"/>
        </g>
      </g>
      <g id="Group_111-3" data-name="Group 111" transform="translate(-1268.458 466.839)">
        <rect id="Rectangle_39-3" data-name="Rectangle 39" width="8.816" height="15.842" transform="translate(1585.241 -279.685)" fill="#e2e2e2"/>
        <path id="Path_90-3" data-name="Path 90" d="M1585.8-271.764a10.059,10.059,0,0,1,3.848-7.921,10.031,10.031,0,0,0-6.226-2.154,10.075,10.075,0,0,0-10.074,10.075,10.075,10.075,0,0,0,10.074,10.075,10.03,10.03,0,0,0,6.226-2.154,10.058,10.058,0,0,1-3.848-7.921" fill="#fff"/>
        <path id="Path_91-3" data-name="Path 91" d="M1689.843-271.765a10.074,10.074,0,0,1-10.074,10.075,10.027,10.027,0,0,1-6.226-2.154,10.057,10.057,0,0,0,3.847-7.921,10.058,10.058,0,0,0-3.847-7.921,10.031,10.031,0,0,1,6.226-2.153,10.074,10.074,0,0,1,10.074,10.074m-.961,6.243v-.324h.131v-.066h-.333v.066h.131v.324Zm.647,0v-.391h-.1l-.117.269-.117-.269h-.1v.391h.072v-.295l.11.255h.075l.11-.255v.3Z" transform="translate(-83.894)" fill="#fff"/>
      </g>
    </g>
  </g>
</svg>
