<svg xmlns="http://www.w3.org/2000/svg" xmlns:xlink="http://www.w3.org/1999/xlink" width="293" height="156" viewBox="0 0 293 156">
  <defs>
    <linearGradient id="linear-gradient" x1="0.941" y1="0.958" x2="0.07" y2="0.076" gradientUnits="objectBoundingBox">
      <stop offset="0" stop-color="#f24f04"/>
      <stop offset="1" stop-color="#f26b40"/>
    </linearGradient>
  </defs>
  <g id="Group_34839" data-name="Group 34839" transform="translate(-42 -296)">
    <g id="Group_5" data-name="Group 5" transform="translate(8.851 -14.143)">
      <rect id="Rectangle_3" data-name="Rectangle 3" width="185" height="45" rx="22" transform="translate(87.149 364.143)" opacity="0.2" fill="url(#linear-gradient)"/>
      <g id="Group_4" data-name="Group 4" transform="translate(149.779 345.628)">
        <path id="Path_4" data-name="Path 4" d="M1202.979,552.127h-44.984a2,2,0,0,1-1.314-3.5,2,2,0,0,1,1.135-.485c.06-.005.12-.005.179-.008h45c.22,0,.439.011.658.034a6.567,6.567,0,0,1,5.818,7.583,7.977,7.977,0,0,1-.353,1.343,9.815,9.815,0,0,1-8.241,6.532c-.34.036-.682.052-1.024.054h-14.293c-.367,1.378-.733,2.757-1.11,4.133-.1.341-.208.678-.339,1.008a10.146,10.146,0,0,1-8.794,6.39,8.231,8.231,0,0,1-1.232-.005,6.8,6.8,0,0,1-6.133-7.759,7.154,7.154,0,0,1,.158-.763l1.476-5.51c.009-.036.02-.072.032-.108s.017-.051.031-.088l0,0,.006-.015,0-.009q.033-.084.074-.165l.025-.048,0-.009.01-.019,0-.008v0l0-.008,0-.006.007-.012.005-.009.005-.009.007-.012,0-.006.005-.009a1.995,1.995,0,0,1,.888-.771l.009,0h0a1.96,1.96,0,0,1,.28-.1q.061-.016.123-.029h0l.017,0,.01,0h.008l.018,0a1.61,1.61,0,0,1,.169-.022l.065,0,.083,0h.022c4.085,0,23.185.028,28.393,0,.2,0,.408-.015.61-.038a5.831,5.831,0,0,0,4.222-2.628,5.859,5.859,0,0,0,.724-1.626l0,.011.019-.073a2.618,2.618,0,0,0,.062-.915,2.574,2.574,0,0,0-2.26-2.271,2.839,2.839,0,0,0-.3-.017Zm-21.557,11.551h-8.377c-.366,1.356-.734,2.711-1.088,4.07a2.858,2.858,0,0,0-.068,1,2.8,2.8,0,0,0,2.581,2.484,4.266,4.266,0,0,0,.53,0,6.151,6.151,0,0,0,5.442-4c.068-.184.127-.372.179-.561l.8-2.99Zm-5.179-27.1.038-.1a17.573,17.573,0,0,1,14.724-11.359c.552-.055,1.106-.082,1.66-.087,5.642-.015,11.285-.04,16.927,0a6.978,6.978,0,0,1,.757.055,6.568,6.568,0,0,1,5.615,7.654,8.238,8.238,0,0,1-.371,1.347,9.816,9.816,0,0,1-8.208,6.435c-.34.036-.682.052-1.024.054h-45.431a2,2,0,0,1-1.314-3.5,2,2,0,0,1,1.135-.485c.06-.005.119-.005.179-.008Zm4.39,0s24.582.006,25.786,0l.185,0c.2-.01.4-.028.606-.057a5.82,5.82,0,0,0,4.766-4.23l0,.011.019-.073a2.619,2.619,0,0,0,.062-.915,2.574,2.574,0,0,0-1.586-2.1,2.62,2.62,0,0,0-.934-.19q-8.46-.061-16.92,0c-.428.006-.856.029-1.282.074a13.594,13.594,0,0,0-10.284,6.62c-.165.28-.319.567-.464.858l0,0Z" transform="translate(-1155.998 -525.01)" fill="#fff" fill-rule="evenodd"/>
        <path id="Path_5" data-name="Path 5" d="M1267.726,691.327l-.531,1.991h-4.139l.533-1.991Z" transform="translate(-1238.165 -652.659)" fill="#ccc" fill-rule="evenodd"/>
      </g>
      <g id="Etosha_Logo" data-name="Etosha Logo" transform="translate(75.103 284.251)">
        <path id="Path_36079" data-name="Path 36079" d="M.1,80.8c.441-.077.307-.441.326-.671A93.6,93.6,0,0,1,2.037,67.474a29.546,29.546,0,0,1,3.375-9.761A5.686,5.686,0,0,1,9.88,54.97a31.2,31.2,0,0,1,9.991.633,74.963,74.963,0,0,1,14.594,4.449c.268.115.671.1.69.575a34.188,34.188,0,0,0-10.72,1.093c-5.1,1.285-9.7,3.49-13.117,7.671A20.669,20.669,0,0,0,7.042,78.75a45.089,45.089,0,0,0,3.088,26.138,21,21,0,0,0,12.2,12.12,23.882,23.882,0,0,0,7.767,1.515,34.049,34.049,0,0,0,7.517-.384l.058.23c-1.227.537-2.455,1.093-3.7,1.573a81.769,81.769,0,0,1-14.728,4.372c-.844.153-1.764,0-2.474.652H9.286a6.846,6.846,0,0,1-3.624-2.493,18.481,18.481,0,0,1-1.726-3.279c-1.8-4.737-2.474-9.7-3.088-14.67-.4-3.2-.384-6.405-.537-9.608A16.845,16.845,0,0,0,.1,91.5V85.961c.019-.384.077-.748.077-1.131A7.428,7.428,0,0,0,.1,82.144Z" transform="translate(-0.081)" fill="#f16923"/>
        <path id="Path_36080" data-name="Path 36080" d="M1010.632,353.431c-2.109.019-2.109.019-2.109-2.052,0-2.033,0-4.066-.019-6.117-.019-1.534-.594-2.244-1.879-2.4a2.768,2.768,0,0,0-2.915,1.841,10.609,10.609,0,0,0-.326,3.3c.019,1.553-.058,3.126.019,4.679.038.921-.537.729-1.055.748s-.978.115-.959-.729c.058-2.263.019-4.526.019-6.77a5.524,5.524,0,0,0-.1-1.131c-.288-1.381-.748-1.822-1.86-1.937a2.752,2.752,0,0,0-2.781,1.611,7.076,7.076,0,0,0-.4,2.531c0,1.822-.038,3.624.019,5.446.019.786-.211,1.036-1.016,1-.71-.019-1.093-.077-1.074-.959.058-3.414.038-6.808.019-10.221,0-.652.115-.978.882-.94.652.019,1.055.134.94.882a1.179,1.179,0,0,0,.038.364c.307.134.4-.153.556-.288a4.108,4.108,0,0,1,6.252.384c.4.5.518.058.671-.115a4.379,4.379,0,0,1,3.855-1.477,3.2,3.2,0,0,1,2.953,2.186c.058.134.077.326.249.364C1010.632,346.93,1010.632,350.171,1010.632,353.431Z" transform="translate(-803.539 -231.34)" fill="#f16923"/>
        <path id="Path_36081" data-name="Path 36081" d="M.019,246.2a15.468,15.468,0,0,1,.211,3.394c.153,3.2.134,6.424.537,9.627.614,4.967,1.285,9.953,3.107,14.67A19.831,19.831,0,0,0,5.6,277.171a6.846,6.846,0,0,0,3.624,2.493c-2.838,0-5.7-.019-8.534.019-.575,0-.69-.115-.69-.69Q.029,262.6.019,246.2Z" transform="translate(0 -154.697)" fill="#fdfbfa"/>
        <path id="Path_36082" data-name="Path 36082" d="M.1,197.4a7.428,7.428,0,0,1,.077,2.685A11.21,11.21,0,0,1,.1,201.216Z" transform="translate(-0.081 -115.256)" fill="#fdfbfa"/>
        <path id="Path_36083" data-name="Path 36083" d="M272.7,130.558c.326-.019.633-.058.959-.058H425.484c1.477,0,1.477,0,1.477,1.5,0,12.292-.019,24.585.019,36.878,0,.825-.173,1.036-1.036,1.036q-74.762-.029-149.524-.038c-.288,0-.652.173-.882-.173a19.116,19.116,0,0,1,3.183-2.512,57.221,57.221,0,0,0,10.145-9.589,11.172,11.172,0,0,0,2.474-5.082c.518-3.375-.882-6.137-2.934-8.649-3.49-4.276-7.939-7.479-12.388-10.682A17.391,17.391,0,0,1,272.7,130.558ZM414.476,163.1c0,1.112.019,1.937,0,2.761-.019.46.134.595.594.595,1.477-.019,2.934-.038,4.411,0,.556.019.614-.23.614-.671,0-8.016-.019-16.032,0-24.067,0-.614-.23-.748-.786-.729-1.3.038-2.627.058-3.931,0-.69-.019-.978.134-.92.882.077.863.019,1.745.019,2.838-.326-.384-.518-.575-.69-.805-3.068-4.027-8.534-4.507-12.618-2.685a14.182,14.182,0,0,0-6.156,20.213,13.237,13.237,0,0,0,10.413,6.194c.633.077,1.016-.422,1.611-.422a7.851,7.851,0,0,0,3.011-.767A13.771,13.771,0,0,0,414.476,163.1Zm-42.017-20.213v-1.131c0-2.857-.019-5.734.019-8.591,0-.575-.134-.767-.729-.748-1.573.038-3.126.038-4.7,0-.537-.019-.69.134-.69.69q.029,16.339,0,32.659c0,.537.153.69.69.69q2.3-.058,4.6,0c.671.019.844-.153.844-.825-.038-4.1-.019-8.208-.019-12.312a12.411,12.411,0,0,1,.211-3.03c.46-1.879,1.381-3.433,3.279-3.989a4.913,4.913,0,0,1,5.274,1.189,5.976,5.976,0,0,1,1.592,4.238c.058,4.641.038,9.3,0,13.942,0,.633.173.805.786.786,1.5-.038,3.011-.058,4.507,0,.671.019.844-.173.844-.844-.038-5.255.038-10.509-.038-15.764a9.926,9.926,0,0,0-3.874-7.728C382.124,139.724,375.949,139.245,372.459,142.888Zm-47.617-2.646a11.635,11.635,0,0,0-4.353.748,13.6,13.6,0,0,0-8.649,13.827,13.769,13.769,0,0,0,6.616,10.835,13.058,13.058,0,0,0,6.06,1.841,11.541,11.541,0,0,0,4.813-.863c6.6-2.359,10.682-8.706,9.071-15.975A13.689,13.689,0,0,0,324.842,140.242Zm21.5,18.2c-.863,0-1.726.019-2.589,0-.384,0-.575.077-.556.537a7.436,7.436,0,0,0,1.112,3.97,9.281,9.281,0,0,0,10.106,4.066,8.655,8.655,0,0,0,7.057-7.4c.364-2.4,0-4.718-2.186-6.309a13.371,13.371,0,0,0-3.989-1.975,22.755,22.755,0,0,1-4.046-1.342,2,2,0,0,1-.422-3.279,2.565,2.565,0,0,1,3.874.5c.211.307.288.748.863.729,1.63-.038,3.26-.038,4.89-.019.5,0,.518-.23.441-.594a9.384,9.384,0,0,0-1.093-3.107,8.753,8.753,0,0,0-12.964-2.014c-4.142,3.394-3.471,9.876,1.189,12.043a40.551,40.551,0,0,0,4.161,1.611,5.346,5.346,0,0,1,2.685,1.5,2.15,2.15,0,0,1-.307,3.318c-1.63.978-3.893,1.055-4.794-1.074-.537-1.285-1.266-1.17-2.225-1.17C347.165,158.46,346.762,158.441,346.34,158.441Zm-42.017-2.033c0-2.953.038-5.926-.019-8.879-.019-.94.192-1.285,1.189-1.189.805.077,1.879.384,2.4-.134.5-.518.134-1.573.134-2.4.019-.882.288-2.052-.153-2.589-.46-.575-1.668-.115-2.551-.173h-.1c-.69.115-.921-.115-.9-.863.058-2.32,0-4.641.038-6.98,0-.633-.192-.805-.825-.786-1.477.038-2.934.058-4.411,0-.671-.019-.863.153-.844.825.038,2.4,0,4.775.019,7.172,0,.5-.115.671-.633.633-.594-.038-1.208.019-1.822-.019-.537-.038-.748.115-.71.671.038.882,0,1.783,0,2.666,0,1.975,0,2.033,1.994,1.956.9-.038,1,.288,1.016,1.055,0,6.06.077,12.1.1,18.161,0,.69.134.94.882.9,1.438-.077,2.877-.058,4.315,0,.671.019.94-.115.94-.863C304.3,162.526,304.323,159.477,304.323,156.408Z" transform="translate(-220.404 -61.185)" fill="#3a53a4"/>
        <path id="Path_36084" data-name="Path 36084" d="M144.36,130.026a17.771,17.771,0,0,0,3.337,2.646c4.449,3.2,8.879,6.386,12.388,10.682,2.052,2.512,3.452,5.274,2.934,8.649a11.171,11.171,0,0,1-2.474,5.082,57.221,57.221,0,0,1-10.145,9.589,19.326,19.326,0,0,0-3.183,2.512.992.992,0,0,0-.249.115c-.422.307-1.323.326-1.151.959.153.594.978.288,1.457.249,3.222-.173,6.443-.1,9.665-.1q45.824-.029,91.647,0c1.534,0,1.534,0,1.534,1.5v9.608c-2.014-.556-3.931-1.131-5.868-1.63-4.583-1.208-9.243-2.09-13.923-2.877-5.274-.9-10.586-1.592-15.879-2.225-4.1-.5-8.246-.825-12.369-1.189q-6.415-.575-12.868-1.074c-2.646-.192-5.293-.326-7.92-.46-4.487-.249-8.975-.556-13.462-.729-6.444-.268-12.887-.422-19.331-.671-1-.038-1.956-.5-2.915-.307-.1-.115-.115-.134-.134-.153a.193.193,0,0,1,.058.019c.71-1.688,1.8-3.183,2.455-4.909a33.506,33.506,0,0,0,1.822-6.789c.1-.594,0-.786-.671-.69-3.279.46-6.578.825-9.857,1.3a6.256,6.256,0,0,0-4.123,2.512c-2.857,3.663-6.559,5.753-11.314,5.37a9.749,9.749,0,0,1-8.15-5.715,20.643,20.643,0,0,1-1.688-4.756c-.173-.748-.115-1.17.9-1.285,4.775-.575,9.531-1.266,14.287-1.9,4.986-.671,9.991-1.3,14.977-1.956,1.611-.211,3.222-.441,4.833-.594.69-.077.825-.4.767-1.016a56.514,56.514,0,0,0-2.589-12.465,34,34,0,0,0-3.183-6.693c-.153-.23-.288-.479-.422-.729C143.861,129.7,144.072,130.045,144.36,130.026Z" transform="translate(-92.064 -60.654)" fill="#f16923"/>
        <path id="Path_36085" data-name="Path 36085" d="M117,145.2a10.121,10.121,0,0,1,10.26,7.076c.268.748.479,1.515.71,2.263.134.46.019.671-.518.729q-7.393.978-14.747,1.994c-1.573.211-3.145.422-4.737.614-.364.038-.94.211-.882-.5.249-2.915.5-5.868,2.4-8.285A9.947,9.947,0,0,1,117,145.2Z" transform="translate(-86.544 -73.066)" fill="#f16923"/>
        <path id="Path_36086" data-name="Path 36086" d="M933.91,347.3c0,4.813-3.893,7.632-8.112,5.83-2.34-1-3.145-3.03-3.241-5.389-.077-2.052.249-4.027,1.975-5.427a5.718,5.718,0,0,1,6.194-.748c2.109.9,2.953,2.761,3.164,4.948A5.444,5.444,0,0,1,933.91,347.3Zm-2.129,0a5.51,5.51,0,0,0-.173-1.745,3.592,3.592,0,0,0-3.222-2.819,3.369,3.369,0,0,0-3.414,2.531,6.961,6.961,0,0,0,.134,4.583,3.289,3.289,0,0,0,3.049,2.071,3.248,3.248,0,0,0,3.126-1.956A5.7,5.7,0,0,0,931.781,347.3Z" transform="translate(-745.629 -231.312)" fill="#f16923"/>
        <path id="Path_36087" data-name="Path 36087" d="M864.635,347.318a9.07,9.07,0,0,0,.288,2.608,3.009,3.009,0,0,0,3.049,2.263,2.773,2.773,0,0,0,2.915-2.244c.1-.288.077-.671.537-.652A4.875,4.875,0,0,1,873,349.6c.038.019-.019.288-.058.441a4.825,4.825,0,0,1-4.411,3.855,5.111,5.111,0,0,1-5.427-3.068,7.932,7.932,0,0,1,.4-7.076,4.97,4.97,0,0,1,4.871-2.378,4.409,4.409,0,0,1,4.123,2.608c.173.384.69,1.074-.077,1.247-.537.134-1.4.748-1.8-.441a2.411,2.411,0,0,0-2.57-1.726,3.031,3.031,0,0,0-2.877,1.841A4.749,4.749,0,0,0,864.635,347.318Z" transform="translate(-697.066 -231.614)" fill="#f16923"/>
        <path id="Path_36088" data-name="Path 36088" d="M836.363,395.56c-1.534-.038-1.381.211-1.381-1.323,0-1.266-.134-.94,1.477-1.074,1.112-.1.882.614.959,1.247C837.533,395.407,837.149,395.752,836.363,395.56Z" transform="translate(-674.853 -273.47)" fill="#f16923"/>
        <path id="Path_36089" data-name="Path 36089" d="M921.3,203.98a13.7,13.7,0,0,1-4.43,3.318,7.94,7.94,0,0,1-3.011.767c-.594,0-.978.479-1.611.422a13.237,13.237,0,0,1-10.413-6.194,14.21,14.21,0,0,1,6.156-20.213c4.1-1.8,9.55-1.323,12.619,2.685.173.211.364.422.69.805,0-1.093.058-1.956-.019-2.838-.057-.748.23-.9.921-.882,1.3.058,2.627.038,3.931,0,.556-.019.786.1.786.729q-.029,12.024,0,24.067c0,.441-.057.69-.614.671-1.477-.038-2.934-.019-4.411,0-.46,0-.614-.134-.595-.594C921.315,205.917,921.3,205.092,921.3,203.98Zm-.192-9.339a7.506,7.506,0,0,0-7.671-7.748,7.657,7.657,0,0,0-7.613,7.882,7.734,7.734,0,0,0,7.23,7.652C917.538,202.637,921.373,198.648,921.1,194.64Z" transform="translate(-727.224 -102.064)" fill="#fdfbfa"/>
        <path id="Path_36090" data-name="Path 36090" d="M767.2,151.046c3.49-3.644,9.665-3.164,12.6-.748a9.869,9.869,0,0,1,3.874,7.728c.077,5.255,0,10.509.038,15.764,0,.671-.153.863-.844.844-1.5-.058-3.011-.058-4.507,0-.633.019-.786-.153-.786-.786.019-4.641.038-9.3,0-13.942a5.976,5.976,0,0,0-1.592-4.238,4.878,4.878,0,0,0-5.274-1.189c-1.9.556-2.838,2.129-3.279,3.989a12.344,12.344,0,0,0-.211,3.03c0,4.1-.019,8.208.019,12.312,0,.671-.173.863-.844.825-1.534-.058-3.068-.038-4.6,0-.537.019-.69-.134-.69-.69q.029-16.339,0-32.659c0-.556.153-.69.69-.69,1.573.038,3.126.038,4.7,0,.594-.019.748.173.729.748-.038,2.857-.019,5.734-.019,8.591Z" transform="translate(-615.143 -69.343)" fill="#fdfbfa"/>
        <path id="Path_36091" data-name="Path 36091" d="M489.651,181.277a13.724,13.724,0,0,1,13.577,10.413c1.63,7.268-2.474,13.635-9.071,15.975a11.854,11.854,0,0,1-4.813.863,13.058,13.058,0,0,1-6.06-1.841,13.769,13.769,0,0,1-6.616-10.835,13.6,13.6,0,0,1,8.649-13.827A11.477,11.477,0,0,1,489.651,181.277Zm.556,21.114c3.835.4,7.287-3.8,7.326-7.652a7.793,7.793,0,0,0-7.748-7.5,7.524,7.524,0,0,0-7.211,7.575C482.479,199.112,486.564,202.737,490.207,202.391Z" transform="translate(-385.213 -102.221)" fill="#fdfbfa"/>
        <path id="Path_36092" data-name="Path 36092" d="M643.607,199.357h1.247c.94-.019,1.688-.115,2.225,1.17.9,2.129,3.145,2.071,4.794,1.074a2.15,2.15,0,0,0,.307-3.318,5.51,5.51,0,0,0-2.685-1.5,42.338,42.338,0,0,1-4.161-1.611,7.155,7.155,0,0,1-1.189-12.043,8.755,8.755,0,0,1,12.964,2.014,9.538,9.538,0,0,1,1.093,3.107c.077.345.057.594-.441.594-1.63-.019-3.26-.038-4.89.019-.575.019-.652-.422-.863-.729a2.552,2.552,0,0,0-3.874-.5,1.994,1.994,0,0,0,.422,3.279,22.754,22.754,0,0,0,4.046,1.342,13.6,13.6,0,0,1,3.989,1.975c2.205,1.592,2.57,3.912,2.186,6.309a8.655,8.655,0,0,1-7.057,7.4,9.269,9.269,0,0,1-10.106-4.066,7.61,7.61,0,0,1-1.112-3.97c0-.46.173-.537.556-.537C641.881,199.376,642.744,199.357,643.607,199.357Z" transform="translate(-517.671 -102.101)" fill="#fdfbfa"/>
        <path id="Path_36093" data-name="Path 36093" d="M398.719,164.469c0,3.049-.019,6.117.019,9.167.019.767-.249.882-.94.863q-2.157-.086-4.315,0c-.748.038-.882-.23-.882-.9-.019-6.06-.077-12.1-.1-18.161,0-.786-.1-1.093-1.016-1.055-1.975.077-1.994.019-1.994-1.956,0-.9.038-1.783,0-2.666-.019-.556.192-.71.71-.671.614.038,1.208-.019,1.822.019.518.038.633-.134.633-.633-.019-2.4.019-4.775-.019-7.172-.019-.69.192-.863.844-.825,1.477.058,2.934.038,4.411,0,.633-.019.825.173.825.786-.038,2.32.019,4.66-.038,6.98-.019.748.211.978.9.863h.1c.882.058,2.09-.384,2.551.173.441.537.153,1.688.153,2.589-.019.825.364,1.879-.134,2.4s-1.592.211-2.4.134c-1-.1-1.208.249-1.189,1.189C398.758,158.544,398.719,161.516,398.719,164.469Z" transform="translate(-314.8 -69.246)" fill="#fdfbfa"/>
        <path id="Path_36094" data-name="Path 36094" d="M940.721,354.646a6.22,6.22,0,0,1-.479,2.666,3.374,3.374,0,0,1-6.175-.115,6.961,6.961,0,0,1-.134-4.583,3.369,3.369,0,0,1,3.413-2.531,3.615,3.615,0,0,1,3.222,2.819A6.1,6.1,0,0,1,940.721,354.646Z" transform="translate(-754.569 -238.655)" fill="#fdfbfa"/>
        <path id="Path_36095" data-name="Path 36095" d="M946.584,219.147c.268,4.027-3.567,8-8.054,7.786a7.777,7.777,0,0,1,.384-15.533A7.506,7.506,0,0,1,946.584,219.147Z" transform="translate(-752.704 -126.57)" fill="#3a53a4"/>
        <path id="Path_36096" data-name="Path 36096" d="M515.325,227.542c-3.644.345-7.728-3.26-7.632-7.575a7.524,7.524,0,0,1,7.211-7.575,7.793,7.793,0,0,1,7.748,7.5C522.613,223.726,519.142,227.945,515.325,227.542Z" transform="translate(-410.331 -127.371)" fill="#3a53a4"/>
      </g>
    </g>
    <text id="Food_Delivery_Service" data-name="Food Delivery Service" transform="translate(188 447)" fill="#959ba4" font-size="18" font-family="SegoeUI, Segoe UI"><tspan x="-85.021" y="0">Food Delivery Service</tspan></text>
  </g>
</svg>
