<svg id="Group_22" data-name="Group 22" xmlns="http://www.w3.org/2000/svg" xmlns:xlink="http://www.w3.org/1999/xlink" width="211.887" height="244.238" viewBox="0 0 211.887 244.238">
  <defs>
    <linearGradient id="linear-gradient" x1="1.089" y1="0.198" x2="1.089" y2="1.431" gradientUnits="objectBoundingBox">
      <stop offset="0" stop-color="#ffe97a"/>
      <stop offset="1" stop-color="#61001c"/>
    </linearGradient>
  </defs>
  <g id="Group_19" data-name="Group 19" transform="translate(174.603 174.741)">
    <g id="Group_18" data-name="Group 18" transform="translate(0 0)">
      <path id="Path_52" data-name="Path 52" d="M229.794,168.076l-1.653,2.239s-19.28-1.2-22.92-31.944c-1.114-9.417-4.025-19.615-8.047-23.1,0,0,17.549-11.684,29.819-9.868,2.888,11.158.674,16.039-.052,22.561C225.579,140.2,213.308,162.871,229.794,168.076Z" transform="translate(-194.762 -100.819)" fill="#d66b22"/>
      <path id="Path_53" data-name="Path 53" d="M230.367,168.183c-6.314-.636-20.4-8.131-22.807-28.438-1.115-9.417-3.3-22.9-7.324-26.386,0,0,15.119-9.781,27.389-7.964,2.888,11.158.162,16.01-.052,22.561C227.065,143.507,215.443,157.466,230.367,168.183Z" transform="translate(-195.394 -100.81)" fill="#e59a48"/>
      <path id="Path_54" data-name="Path 54" d="M222.336,155.964c-8.923-7.193,2.605-11.861,2.605-11.861a2.037,2.037,0,0,0,.421-2.7c-1.04-1.447-1.471-8.976,1.9-9.385s2.112-10.641,2.112-10.641c-7.211-9.989.22-6.335.22-6.335l-.179-1.514s-7.7-4.591-10.5,1.941-3.51.119-9.031.511-8.877,5.12-8.877,5.12l.98,1.952s1.363-3.158,5.768,4.29-.021,10.033-.021,10.033l.406,2c.986-.306,4.278-.259,6.34,6.381s-4.369,9.258-4.369,9.258l.847,1.542c2.487-2.286,8.56.254,11.6,1.788Z" transform="translate(-195.554 -102.212)" fill="#ffda40"/>
      <path id="Path_55" data-name="Path 55" d="M229.514,108.463c-4.022.548-23.9,4.277-29.922,10.154-1.954,1.906-6.953-.625-5.022-5.6s21.667-17.541,34.056-11.469C234.193,104.272,229.514,108.463,229.514,108.463Z" transform="translate(-194.134 -99.726)" fill="#d66b22"/>
      <path id="Path_56" data-name="Path 56" d="M230.384,107.937c-3.644.242-21.713,2.362-27.482,7.274-1.87,1.594-6.2-.994-4.163-5.353s20.525-14.433,31.272-8.2C234.841,104.458,230.384,107.937,230.384,107.937Z" transform="translate(-194.975 -99.676)" fill="#f9b23e"/>
      <path id="Path_57" data-name="Path 57" d="M232.865,126.984c-.564,3.035-9.929,1.743-8.883-5.559S234.866,116.23,232.865,126.984Z" transform="translate(-200.279 -103.279)" fill="#b7371d"/>
      <path id="Path_58" data-name="Path 58" d="M233.445,126.728c-.564,3.035-9.928,1.743-8.883-5.558S235.446,115.973,233.445,126.728Z" transform="translate(-200.399 -103.227)" fill="#ce4c36"/>
      <path id="Path_59" data-name="Path 59" d="M214.538,166.234c-3.326.384-3.246,4.164-8.208,3.013-2.135-.494-1.151-2.642.886-2.153,2.681.642,2.582-1.206,6.362-2.644Z" transform="translate(-196.405 -113.048)" fill="#ffda40"/>
      <path id="Path_60" data-name="Path 60" d="M226.827,167.118c.486-.255,1.636.5,1.975,1.173a1.238,1.238,0,0,1-.267,1.673c-.486.256-1.155-.079-1.494-.749S226.34,167.373,226.827,167.118Z" transform="translate(-200.835 -113.589)" fill="#ffda40"/>
      <path id="Path_61" data-name="Path 61" d="M209.387,145.984c-2.121.862-4.061-1.327-.565-2.094S209.387,145.984,209.387,145.984Z" transform="translate(-196.77 -108.777)" fill="#ffda40"/>
      <path id="Path_62" data-name="Path 62" d="M227.362,141.287c-3.066-1.484-3.1-8.27.59-6.406S228.617,141.894,227.362,141.287Z" transform="translate(-200.531 -106.878)" fill="#e59a48"/>
      <path id="Path_63" data-name="Path 63" d="M224.85,152.725c.06-2.21,3.066-4.644,3.992-3.672C230.714,151.019,224.807,154.277,224.85,152.725Z" transform="translate(-200.475 -109.824)" fill="#e59a48"/>
      <path id="Path_64" data-name="Path 64" d="M223.3,136.143c-.3-.6-.148-2.327.453-2.52C227.256,132.5,223.516,136.573,223.3,136.143Z" transform="translate(-200.125 -106.644)" fill="#e59a48"/>
      <path id="Path_65" data-name="Path 65" d="M215.932,145.123c1.451-1.7,2.674-2.748,3.565-.786,3.877,8.534-6.237,10.385-7.357,7.57-.183-.462.437-2.151,1.4-3.921C210.81,146.028,208.79,138.179,215.932,145.123Z" transform="translate(-197.623 -108.477)" fill="#c18c46"/>
      <path id="Path_66" data-name="Path 66" d="M216.528,144.116c1.45-1.7,3-2.535,3.89-.573,3.877,8.535-6.237,10.385-7.356,7.57-.183-.462.436-2.151,1.4-3.921C211.732,145.234,209.386,137.173,216.528,144.116Z" transform="translate(-197.78 -108.279)" fill="#f2aa5c"/>
      <path id="Path_67" data-name="Path 67" d="M215.887,130.762c2.556-3.136-2.8-11.7-7.267-9.605C202.686,123.947,208.811,139.448,215.887,130.762Z" transform="translate(-196.631 -104.043)" fill="#e25423"/>
      <path id="Path_68" data-name="Path 68" d="M216.015,130.161c2.2-2.7-2.416-10.085-6.263-8.278C204.636,124.287,209.917,137.648,216.015,130.161Z" transform="translate(-196.933 -104.202)" fill="#ff8d4d"/>
      <path id="Path_69" data-name="Path 69" d="M216.985,166.7c2.906.751,4.2,4.8,5.343,7.186s9.143,7.7,11.145,7.693.9-.779-1.288-2.239-5.723-8.952-6.187-10.705S216.985,166.7,216.985,166.7Z" transform="translate(-198.852 -113.512)" fill="#ffda40"/>
      <path id="Path_70" data-name="Path 70" d="M224.306,169.41l-1.263.454-2.132-4.884,2.151.7Z" transform="translate(-199.662 -113.158)" fill="#9ba336"/>
      <path id="Path_71" data-name="Path 71" d="M222.784,131.331l-1.308.447-.429-4.2,1.765.533Z" transform="translate(-199.69 -105.436)" fill="#9ba336"/>
      <path id="Path_72" data-name="Path 72" d="M211,148.4l-.922.563-1.038-3.11,1.436.1Z" transform="translate(-197.212 -109.209)" fill="#8c8e29"/>
      <path id="Path_73" data-name="Path 73" d="M230.071,143.495l-1.344.064.023-3.9,1.693.939Z" transform="translate(-201.276 -107.93)" fill="#8c8e29"/>
      <path id="Path_74" data-name="Path 74" d="M231.337,181.545c-1.566.029-5.712.5-7.9-6.57Z" transform="translate(-200.184 -115.221)" fill="#ffda40"/>
      <path id="Path_75" data-name="Path 75" d="M230.006,179.6c-3.185-.625-6.287-6.091-3.487-4.122S232.322,180.05,230.006,179.6Z" transform="translate(-200.594 -115.236)" fill="#e59a48"/>
      <path id="Path_76" data-name="Path 76" d="M229.023,151.829l-1.418,8.158a4.836,4.836,0,0,1-4.27-6.083C224.133,150.476,227.18,149.929,229.023,151.829Z" transform="translate(-200.129 -110.219)" fill="#b7371d"/>
      <path id="Path_77" data-name="Path 77" d="M229.707,151.9l-1.418,8.157a4.837,4.837,0,0,1-4.271-6.083C224.817,150.545,227.863,150,229.707,151.9Z" transform="translate(-200.27 -110.234)" fill="#ce4c36"/>
      <path id="Path_78" data-name="Path 78" d="M215.635,130.4c.488-.744-7.386-3.05-7.482-3.351S210.515,138.215,215.635,130.4Z" transform="translate(-197.028 -105.327)" fill="#e25423"/>
      <path id="Path_79" data-name="Path 79" d="M215.784,127.473c.53,1.392-7.262-2.662-7.353-2.539S212.267,118.232,215.784,127.473Z" transform="translate(-197.085 -104.413)" fill="#e25423"/>
      <path id="Path_80" data-name="Path 80" d="M215.69,131.819c-.542.513-1.07-1.511-1.07-1.511S216.263,131.276,215.69,131.819Z" transform="translate(-198.363 -106)" fill="#ff8d4d"/>
      <path id="Path_81" data-name="Path 81" d="M213.663,132.6c-.7.23-.306-1.838-.306-1.838S214.41,132.36,213.663,132.6Z" transform="translate(-198.08 -106.095)" fill="#ff8d4d"/>
      <path id="Path_82" data-name="Path 82" d="M211.452,131.969c-.729-.1.517-1.8.517-1.8S212.225,132.069,211.452,131.969Z" transform="translate(-197.662 -105.971)" fill="#ff8d4d"/>
      <path id="Path_83" data-name="Path 83" d="M209.5,129.5c-.217-.683,1.789-.334,1.789-.334S209.732,130.227,209.5,129.5Z" transform="translate(-197.303 -105.746)" fill="#ff8d4d"/>
      <path id="Path_84" data-name="Path 84" d="M210.2,124.415c.426-.587,1.29,1.262,1.29,1.262S209.751,125.036,210.2,124.415Z" transform="translate(-197.436 -104.759)" fill="#ff8d4d"/>
      <path id="Path_85" data-name="Path 85" d="M212.777,123.613c.7-.171.14,1.815.14,1.815S212.036,123.793,212.777,123.613Z" transform="translate(-197.922 -104.616)" fill="#ff8d4d"/>
      <path id="Path_86" data-name="Path 86" d="M214.825,124.664c.635.167-.673,1.538-.673,1.538S214.152,124.486,214.825,124.664Z" transform="translate(-198.267 -104.832)" fill="#ff8d4d"/>
      <path id="Path_87" data-name="Path 87" d="M216.175,126.989c.236.526-1.393.421-1.393.421S215.924,126.433,216.175,126.989Z" transform="translate(-198.397 -105.279)" fill="#ff8d4d"/>
      <path id="Path_88" data-name="Path 88" d="M227.383,127.836c1.213-.775,2.605-9.331,1.34-11.052s-1.516-.49-1.459.135,1.751,10.867-3.14,9.225C224.123,126.144,226.432,128.444,227.383,127.836Z" transform="translate(-200.325 -103.026)" fill="#ffda40"/>
      <path id="Path_89" data-name="Path 89" d="M225.059,162.13c1.286-.688,5.452-10.034,4.571-12.144-1.019-2.436-1.19.548-1.283,1.365-.089.786-.178,9.555-4.892,8.671C223.454,160.022,224.044,162.672,225.059,162.13Z" transform="translate(-200.187 -109.869)" fill="#ffda40"/>
      <path id="Path_90" data-name="Path 90" d="M227.544,123.42c-.843-1.29-2.935-3.807-4.3-2.917l.988-1.837s3.461,4.56,3.888,1.408C228.123,120.074,228.449,123.115,227.544,123.42Z" transform="translate(-200.144 -103.596)" fill="#ffda40"/>
      <path id="Path_91" data-name="Path 91" d="M227.068,158.219c-1.313-.784-3.036-.974-4.776,1.161l-.106-3.473s5.4,3.689,5.964-1.728C228.149,154.179,228.26,157.128,227.068,158.219Z" transform="translate(-199.925 -110.928)" fill="#ffda40"/>
      <path id="Path_92" data-name="Path 92" d="M232.188,130.195c-.052-1.546-.135-5.211-2.839-5.471l.917-4.75s1.768,11.362,4.757,7.274C235.023,127.248,233.733,130.581,232.188,130.195Z" transform="translate(-201.404 -103.866)" fill="#ffda40"/>
      <path id="Path_93" data-name="Path 93" d="M214.691,149.029c1.829.05,2.918-2.37-.221-.69Z" transform="translate(-198.332 -109.6)" fill="#c18c46"/>
      <path id="Path_94" data-name="Path 94" d="M217.515,144.6c-.24,1.2,1.213,2.145.474-.082Z" transform="translate(-198.955 -108.934)" fill="#d89f5b"/>
      <path id="Path_95" data-name="Path 95" d="M220.228,151.134c-1.113,2.358-8.951,2.706-4.586-1.486C219.232,146.2,221.1,149.277,220.228,151.134Z" transform="translate(-198.304 -109.67)" fill="#ffcb64"/>
      <path id="Path_96" data-name="Path 96" d="M221.09,150.375c1.121-1.823.008-9.838-2.289-4.354C218.057,150,220.206,151.81,221.09,150.375Z" transform="translate(-199.195 -108.854)" fill="#ffcb64"/>
      <path id="Path_97" data-name="Path 97" d="M211.013,115.021c2.753-2.362,4.031-3.3,8.052-2.362Z" transform="translate(-197.619 -102.282)" fill="#d66b22"/>
      <path id="Path_98" data-name="Path 98" d="M201.225,120.39c2.362-2.758,3.484-3.877,7.61-3.585Z" transform="translate(-195.598 -103.203)" fill="#d66b22"/>
      <path id="Path_99" data-name="Path 99" d="M226.833,111.65c2.947-2.112,4.3-2.928,8.217-1.639Z" transform="translate(-200.885 -101.682)" fill="#d66b22"/>
      <path id="Path_100" data-name="Path 100" d="M233.376,103.474c-3.387-5.944-26.806.805-20.77,3.294,2.832,1.167,8.547-.269,13.052-.829C230.755,105.307,234.451,105.361,233.376,103.474Z" transform="translate(-197.743 -99.968)" fill="#ffcf4a"/>
      <path id="Path_101" data-name="Path 101" d="M204.441,112.928c4.764-3.615,1.914-4.6-1.563-3.1C198.853,111.57,199.545,116.643,204.441,112.928Z" transform="translate(-195.399 -101.632)" fill="#ffcf4a"/>
    </g>
    <path id="Path_102" data-name="Path 102" d="M229.171,101.657c2.233,1.294,2.479,2.734,2.1,3.907a6.3,6.3,0,0,1-1.758,2.848c-.5.068-1.252.186-2.193.352.113.7.206,1.369.277,2.012.253.13.4.217.4.217l.179,1.514s-.174-.086-.442-.194a33.366,33.366,0,0,1-.143,6.014c.121.171.235.336.365.516,0,0,1.188,9.643-1.829,10.58a68.092,68.092,0,0,1-1.97,9.826,2.043,2.043,0,0,1-.542,2.227,13.731,13.731,0,0,1-.331,1.509l-1.132,6.513c-.11-.013-.223-.033-.336-.055a25.636,25.636,0,0,0-.286,4.269,2.282,2.282,0,0,1,.571.667,1.238,1.238,0,0,1-.267,1.673.615.615,0,0,1-.093.033c1.135,2.779,3.9,8.2,5.725,9.418,2.185,1.459,3.29,2.231,1.288,2.239a1.587,1.587,0,0,1-.176-.013l-1.066,1.445s-11.242-.7-18.178-14.721a4.936,4.936,0,0,1-5.276,1.423c-2.135-.494-1.151-2.642.886-2.153,1.743.417,2.316-.22,3.538-1.11a54.994,54.994,0,0,1-3.891-15.383c-.023-.194-.048-.389-.072-.583a.7.7,0,0,1-.124-.937,64.738,64.738,0,0,0-3.822-15.2l0,.008-.98-1.952c-1.954,1.906-6.953-.625-5.022-5.6.552-1.426,2.57-3.473,5.453-5.528C205.621,102.708,220.132,96.416,229.171,101.657Z" transform="translate(-194.134 -99.676)" opacity="0.7" fill="url(#linear-gradient)" style="mix-blend-mode: overlay;isolation: isolate"/>
  </g>
  <g id="Group_21" data-name="Group 21" transform="translate(0 0)">
    <g id="Group_20" data-name="Group 20" transform="translate(168.862 159.68)">
      <path id="Path_103" data-name="Path 103" d="M204.475,121.432c.617-2.346,7.836-22.448-3.88-27.555-7.124-3.108-11.736-8.932-13.221-13.18l-.018,14.925c2.307,4.642,1.267,13.061,2.378,14.346S203.6,124.787,204.475,121.432Z" transform="translate(-186.993 -80.697)" fill="#ffdeb3"/>
      <path id="Path_104" data-name="Path 104" d="M191.306,108.487c-.426,4.773-5.955,11.086-3.983,12,3.054,1.419,4.465-1.8,8.462-7.993S191.306,108.487,191.306,108.487Z" transform="translate(-186.899 -86.357)" fill="#ffdeb3"/>
      <path id="Path_105" data-name="Path 105" d="M202.672,126.167c-.093,4.791-1.069,10.334.988,10.98,4.709,1.474,3.612-4.224,3.988-9.152C208.22,120.532,202.672,126.167,202.672,126.167Z" transform="translate(-190.091 -89.663)" fill="#ffdeb3"/>
      <path id="Path_106" data-name="Path 106" d="M206.025,112.213c1.783-3.608,2.235-7.736,5.1-7.736,4.857,0-6.2-7.094-10.423-8.262C193.311,94.182,206.025,112.213,206.025,112.213Z" transform="translate(-189.272 -83.868)" fill="#ffdeb3"/>
      <path id="Path_107" data-name="Path 107" d="M195.976,117.183c-.706,4.714-2.407,10.055-.438,10.945,4.5,2.06,4.148-3.7,5.164-8.5C202.235,112.345,195.976,117.183,195.976,117.183Z" transform="translate(-188.493 -87.904)" fill="#ffdeb3"/>
    </g>
    <path id="Path_108" data-name="Path 108" d="M141.844,53l12.6-4.14c-11.057-36.745-24.576-64.609-64.691-80.552C32.819-54.324-13.934-69.377,3.5-115.591l-23.006-4.934S-40.784-89.913-5.66-53.805C36.836-10.123,115.778-29.061,141.844,53Z" transform="translate(25.893 120.525)" fill="#6d5752"/>
    <path id="Path_109" data-name="Path 109" d="M-25.308-103.648a32.048,32.048,0,0,1,2.762-5.312L.463-104.029c-17.432,46.215,29.318,61.271,86.25,83.9,36.565,14.535,51.031,38.972,61.68,71.017l6.168-2.028C143.5,12.118,129.985-15.746,89.87-31.689,32.94-54.324-13.813-69.377,3.619-115.591l-23.006-4.934A42.341,42.341,0,0,0-25.308-103.648Z" transform="translate(25.772 120.525)" fill="#594340"/>
    <path id="Path_110" data-name="Path 110" d="M185.9,66.854l-8.028,8.837L180,84.957l9.665-5.112Z" transform="translate(-16.174 81.841)" fill="#594340"/>
    <path id="Path_111" data-name="Path 111" d="M182.856,94.317l13.928-4.156-2.09-16.422-17.927,8.082Z" transform="translate(-15.946 80.42)" fill="#d3b48d"/>
    <path id="Path_112" data-name="Path 112" d="M188.648,88.225a12.137,12.137,0,0,1,.648,4.395l8.239-2.458-2.09-16.422L180.4,80.516A11.894,11.894,0,0,1,188.648,88.225Z" transform="translate(-16.697 80.419)" fill="#bc9469"/>
  </g>
</svg>
