<svg xmlns="http://www.w3.org/2000/svg" width="385.109" height="203.902" viewBox="0 0 385.109 203.902">
  <g id="Group_80" data-name="Group 80" transform="translate(-9 -207.053)">
    <g id="Group_74" data-name="Group 74" transform="translate(9 207.053)">
      <g id="Group_50" data-name="Group 50" transform="translate(0 0)">
        <path id="Path_139" data-name="Path 139" d="M63.882,197.975h-.393l0-.9h.39c.758,0,1.529-.009,2.288-.031l.028.9C65.427,197.966,64.65,197.975,63.882,197.975Zm-3.1-.06c-.9-.035-1.81-.088-2.7-.154l.066-.894c.884.066,1.784.116,2.675.151Zm8.122-.1-.053-.9c.884-.053,1.784-.126,2.669-.214l.088.9C70.708,197.689,69.8,197.761,68.9,197.818Zm-13.526-.305c-.894-.094-1.8-.214-2.688-.343l.129-.887c.878.129,1.772.242,2.659.34Zm18.92-.22-.12-.891c.887-.116,1.778-.249,2.65-.4l.151.884C76.092,197.038,75.192,197.173,74.3,197.293Zm-24.282-.563c-.884-.164-1.778-.343-2.653-.538l.192-.875c.865.192,1.75.371,2.625.529Zm29.626-.343-.183-.875c.6-.129,1.212-.264,1.806-.406.261-.063.529-.132.793-.2l.227.869c-.267.069-.538.138-.809.2C80.869,196.122,80.253,196.26,79.639,196.386Zm-34.913-.831c-.875-.23-1.75-.475-2.609-.736l.261-.859c.847.255,1.712.5,2.574.727Zm40.165-.519-.258-.859c.862-.258,1.715-.538,2.546-.825l.293.85C86.635,194.492,85.766,194.775,84.891,195.036Zm-45.354-1.051c-.853-.3-1.709-.611-2.543-.938l.324-.834c.825.321,1.668.629,2.511.922Zm50.478-.73-.33-.834c.834-.334,1.662-.686,2.455-1.048l.371.815C91.7,192.559,90.864,192.915,90.014,193.255Zm-55.528-1.24c-.825-.359-1.655-.74-2.464-1.13l.39-.809c.8.387,1.618.762,2.433,1.114ZM94.952,191l-.415-.793c.8-.415,1.58-.853,2.326-1.3l.459.771C96.56,190.127,95.761,190.574,94.952,191ZM29.6,189.658c-.793-.422-1.589-.865-2.367-1.319l.453-.777c.768.45,1.555.887,2.335,1.3ZM99.613,188.2l-.507-.74c.733-.507,1.454-1.039,2.14-1.583l.557.7C101.1,187.137,100.365,187.682,99.613,188.2Zm-74.687-1.275c-.758-.481-1.52-.985-2.256-1.5l.51-.736c.73.507,1.482,1,2.228,1.482Zm78.951-2.108-.607-.664c.655-.6,1.29-1.227,1.891-1.869l.655.617C105.2,183.556,104.547,184.2,103.877,184.818Zm-83.408-.976c-.718-.541-1.435-1.1-2.137-1.668l.57-.7c.686.557,1.4,1.111,2.105,1.646Zm87.134-3-.7-.56c.551-.689,1.083-1.41,1.573-2.137l.746.5C108.714,179.4,108.169,180.132,107.6,180.84Zm-91.341-.409c-.673-.592-1.35-1.2-2.008-1.822l.614-.655c.651.614,1.319,1.218,1.983,1.8Zm94.4-4.1-.78-.444c.431-.762.843-1.558,1.218-2.36l.815.384C111.527,174.735,111.1,175.55,110.662,176.334Zm2.316-4.928-.84-.321c.315-.818.6-1.665.862-2.514l.856.258C113.595,169.7,113.3,170.568,112.978,171.405Zm1.58-5.205-.875-.2c.2-.85.371-1.728.519-2.612l.884.148C114.935,164.435,114.759,165.332,114.558,166.2Zm87.508-3.811h-.079v-.9h.079c.859,0,1.734-.016,2.6-.05l.031.9C203.825,162.37,202.938,162.389,202.066,162.389Zm-2.791-.057c-.909-.041-1.819-.1-2.706-.176l.076-.894c.872.076,1.772.132,2.669.17Zm8.132-.154-.072-.894c.891-.072,1.784-.16,2.666-.264l.1.891C209.213,162.018,208.3,162.106,207.406,162.178Zm-13.538-.312c-.906-.116-1.81-.258-2.681-.419l.157-.881c.862.154,1.75.293,2.64.409Zm18.926-.334-.145-.887c.884-.142,1.769-.3,2.631-.481l.179.881C214.588,161.225,213.688,161.389,212.794,161.533Zm-24.27-.639c-.9-.214-1.781-.45-2.628-.7l.258-.862c.831.252,1.7.485,2.574.692Zm-73.067-.057-.894-.094.028-.267c.069-.78.123-1.589.164-2.395l.894.044c-.038.815-.094,1.636-.164,2.436Zm102.648-.4-.22-.869c.872-.223,1.74-.463,2.574-.721l.261.859C219.875,159.969,218.99,160.215,218.106,160.438Zm-34.79-1.123c-.872-.327-1.715-.686-2.511-1.061l.381-.815c.777.368,1.6.714,2.448,1.035Zm39.986-.469-.308-.843c.85-.312,1.681-.642,2.474-.991l.359.824C225.017,158.188,224.164,158.528,223.3,158.846Zm-44.917-1.872a23.473,23.473,0,0,1-2.275-1.526l.541-.714a22.716,22.716,0,0,0,2.193,1.466Zm49.9-.308-.412-.8c.8-.415,1.58-.859,2.31-1.315l.475.765C229.907,155.784,229.111,156.24,228.287,156.665Zm-112.568-1.253-.9,0v-.28c0-.784-.016-1.589-.044-2.392l.9-.031c.025.815.041,1.63.041,2.423Zm117.19-1.646-.541-.714a22.63,22.63,0,0,0,2.014-1.709l.62.651A24.4,24.4,0,0,1,232.909,153.767Zm-58.883-.123a17.719,17.719,0,0,1-1.422-1.6c-.132-.182-.249-.346-.365-.513l.74-.513.343.485a16.325,16.325,0,0,0,1.341,1.507Zm-59.39-3.572c-.063-.869-.138-1.765-.236-2.665l.894-.091c.094.909.173,1.813.239,2.691Zm122.232-.094-.7-.563a17.618,17.618,0,0,0,1.489-2.159l.774.45A17.507,17.507,0,0,1,236.868,149.978Zm-66.08-.768a26.17,26.17,0,0,1-1.2-2.464l.828-.346a24.989,24.989,0,0,0,1.158,2.373Zm68.919-3.921-.812-.378c.352-.771.686-1.6.985-2.458l.85.3C240.418,143.633,240.078,144.489,239.707,145.289Zm92.018-.422c-.2,0-.409,0-.614-.006l.019-.9c.2,0,.406.006.614.006.673,0,1.363-.025,2.039-.069l.063.894C333.141,144.842,332.43,144.87,331.725,144.867Zm-217.642-.113c-.116-.862-.249-1.753-.393-2.647l.884-.145c.148.9.28,1.8.4,2.672Zm214.306-.066c-.891-.1-1.8-.233-2.691-.406l.167-.884c.872.17,1.753.3,2.618.4Zm8.17-.2-.138-.887c.862-.135,1.74-.308,2.6-.519l.211.875C338.346,144.175,337.446,144.354,336.558,144.492Zm-167.895-.33a23.78,23.78,0,0,1-.614-2.672l.884-.151a22.041,22.041,0,0,0,.595,2.571Zm154.381-.5c-.859-.239-1.734-.516-2.6-.821l.3-.847c.847.3,1.7.57,2.536.8Zm18.813-.447-.28-.853c.828-.274,1.668-.582,2.5-.922l.337.831C343.564,142.617,342.7,142.935,341.858,143.212Zm-23.945-1.375c-.812-.349-1.64-.736-2.461-1.152l.4-.8c.806.406,1.618.787,2.414,1.13Zm28.981-.7-.4-.8c.774-.387,1.57-.806,2.36-1.253l.444.784C348.492,140.313,347.683,140.741,346.893,141.131Zm-105.377-1-.869-.223c.217-.831.412-1.706.582-2.6l.881.167C241.938,138.394,241.737,139.284,241.516,140.134Zm-128.29-.664c-.16-.843-.334-1.728-.522-2.628l.878-.183c.189.906.368,1.8.526,2.647Zm199.833-.076c-.765-.434-1.545-.906-2.322-1.4l.478-.758c.765.488,1.536.95,2.291,1.382Zm-145.312-.633c-.022-.431-.035-.872-.035-1.306,0-.475.016-.957.041-1.432l.9.05c-.025.459-.041.925-.041,1.382,0,.419.013.84.035,1.259Zm183.884-.286-.475-.762c.736-.463,1.492-.954,2.241-1.463l.507.743C353.143,137.509,352.378,138.01,351.633,138.475Zm-43.158-1.983c-.721-.5-1.46-1.032-2.2-1.583l.535-.718c.73.541,1.463,1.07,2.175,1.564Zm47.642-1.067-.532-.724c.708-.519,1.426-1.067,2.134-1.621l.554.7C357.558,134.347,356.831,134.9,356.117,135.426ZM242.546,134.8l-.891-.123c.116-.856.211-1.75.29-2.656l.9.079C242.76,133.015,242.662,133.925,242.546,134.8Zm-130.411-.573c-.2-.84-.4-1.718-.62-2.609l.872-.214c.22.9.428,1.778.62,2.621Zm56.8-.777-.884-.142c.138-.881.327-1.781.557-2.675l.869.223C169.255,131.722,169.07,132.594,168.934,133.447Zm135.2-.189c-.686-.544-1.388-1.12-2.1-1.712l.579-.689c.7.589,1.4,1.158,2.077,1.7Zm56.243-1.183-.576-.686c.673-.566,1.353-1.155,2.027-1.756l.6.67C361.744,130.91,361.055,131.5,360.375,132.074Zm-60.394-2.294c-.651-.57-1.328-1.177-2.017-1.8l.607-.664c.68.623,1.353,1.224,2,1.794Zm-56.963-.39-.9-.041c.041-.862.066-1.762.075-2.675l.9.006C243.084,127.606,243.058,128.515,243.018,129.39Zm-132.158-.378q-.335-1.3-.689-2.6l.872-.233c.233.869.459,1.737.689,2.606Zm253.559-.538-.614-.655c.645-.607,1.293-1.234,1.926-1.863l.636.636C365.725,127.228,365.07,127.861,364.419,128.474Zm-194.175-.16-.847-.3c.29-.837.623-1.693.991-2.54l.825.356C170.854,126.662,170.527,127.5,170.244,128.314Zm125.735-2.171q-.982-.925-1.954-1.86l.623-.645c.645.617,1.293,1.237,1.948,1.85Zm72.283-1.485-.648-.617c.614-.645,1.23-1.306,1.825-1.967l.667.6C369.5,123.342,368.881,124.009,368.261,124.657Zm-126.074-.664c-.016-.872-.047-1.775-.091-2.681l.9-.041c.044.913.076,1.822.091,2.7Zm-132.724-.17q-.359-1.3-.73-2.59l.865-.245q.368,1.293.727,2.593Zm62.889-.393-.8-.412c.406-.787.853-1.586,1.322-2.376l.771.459C173.189,121.875,172.752,122.659,172.352,123.43Zm119.736-1.023c-.645-.633-1.284-1.262-1.923-1.894l.633-.639q.954.944,1.917,1.888Zm79.8-1.753-.68-.589c.579-.673,1.161-1.363,1.721-2.052l.7.57C373.063,119.276,372.478,119.974,371.893,120.654Zm-196.815-1.81-.743-.5c.494-.74,1.023-1.485,1.57-2.219l.721.538C176.088,117.384,175.568,118.118,175.077,118.845Zm-67.087-.2q-.373-1.3-.749-2.59l.862-.249c.252.862.5,1.725.752,2.59Zm133.948-.016c-.06-.872-.132-1.775-.214-2.678l.894-.082c.085.909.157,1.819.22,2.7Zm46.311-.016-1.91-1.9.633-.636,1.91,1.9Zm87.068-2.146-.7-.551c.548-.711,1.092-1.432,1.617-2.143l.724.532C376.424,115.024,375.874,115.751,375.317,116.469Zm-90.894-1.646q-.972-.949-1.929-1.876l.623-.645q.963.925,1.935,1.882Zm-106.148-.261-.692-.57c.566-.689,1.161-1.382,1.765-2.058l.67.6C179.417,113.2,178.835,113.882,178.275,114.562Zm-71.783-1.1q-.378-1.293-.746-2.593l.865-.245c.245.862.494,1.728.743,2.59Zm134.958-.186c-.1-.878-.2-1.775-.321-2.669l.891-.116c.116.9.223,1.8.324,2.684ZM378.53,112.1l-.736-.513c.513-.736,1.02-1.489,1.507-2.228l.749.491C379.559,110.6,379.049,111.358,378.53,112.1Zm-97.984-1.01-.809-.752c-.387-.362-.774-.714-1.167-1.064l.6-.67c.4.356.79.711,1.177,1.076.271.249.538.5.812.755Zm-98.7-.516-.642-.623c.623-.642,1.271-1.284,1.929-1.91l.617.651C183.1,109.312,182.457,109.945,181.843,110.577Zm-76.827-2.3c-.242-.872-.485-1.737-.718-2.606l.869-.236c.233.865.469,1.734.711,2.6Zm135.745-.327q-.2-1.331-.409-2.653l.887-.145c.145.884.28,1.775.412,2.669Zm140.742-.381-.765-.472c.472-.765.938-1.539,1.372-2.3l.784.45C382.448,106.011,381.982,106.795,381.5,107.569Zm-104.955-.041c-.686-.573-1.391-1.139-2.086-1.68l.551-.708c.7.548,1.413,1.12,2.108,1.7Zm-90.825-.645-.592-.673c.67-.595,1.366-1.186,2.064-1.759l.57.7C187.077,105.712,186.388,106.294,185.724,106.883Zm86.6-2.637c-.727-.522-1.467-1.038-2.2-1.529l.5-.746c.743.5,1.488,1.016,2.225,1.545Zm-82.454-.762-.544-.714c.718-.548,1.454-1.086,2.187-1.6l.516.733C191.3,102.411,190.576,102.943,189.868,103.484Zm-86.262-.428q-.345-1.312-.661-2.621l.869-.214q.321,1.3.661,2.612Zm280.6-.179-.79-.425c.422-.79.837-1.592,1.227-2.382l.806.4C385.053,101.266,384.635,102.077,384.207,102.877Zm-144.3-.233c-.157-.887-.321-1.769-.485-2.643l.881-.167q.25,1.317.485,2.653Zm27.967-1.375c-.758-.469-1.533-.928-2.3-1.366l.447-.78c.78.444,1.564.909,2.329,1.385Zm-73.627-.869-.488-.752c.762-.5,1.536-.979,2.3-1.432l.459.771C195.766,99.437,195,99.912,194.246,100.4Zm68.979-1.784c-.787-.409-1.592-.815-2.395-1.2l.387-.812c.812.387,1.627.8,2.423,1.215Zm123.384-.6-.821-.371c.374-.818.727-1.646,1.057-2.458l.834.337C387.344,96.35,386.979,97.187,386.608,98.018ZM102.316,97.8c-.2-.894-.4-1.781-.576-2.64l.878-.186c.179.856.371,1.737.576,2.625Zm96.534-.132-.425-.79c.812-.437,1.627-.85,2.423-1.23l.387.812C200.451,96.835,199.649,97.241,198.85,97.669ZM238.9,97.36c-.179-.887-.365-1.765-.551-2.631l.878-.189q.283,1.3.551,2.64Zm19.5-1.054c-.812-.352-1.643-.7-2.474-1.023l.327-.837c.84.33,1.684.68,2.5,1.035Zm-54.723-.932-.34-.831c.375-.154.749-.3,1.117-.441.472-.183.944-.356,1.419-.529l.3.847c-.466.167-.935.34-1.4.522C204.41,95.079,204.042,95.223,203.674,95.374Zm49.741-1.023c-.84-.3-1.693-.579-2.543-.843l.268-.856c.859.268,1.724.554,2.574.85Zm-44.706-.793-.274-.853c.856-.274,1.734-.535,2.6-.774l.239.865C210.418,93.033,209.556,93.291,208.709,93.559Zm179.941-.566-.846-.305c.305-.85.592-1.7.85-2.533l.856.267C389.248,91.264,388.959,92.13,388.65,92.992ZM248.3,92.762c-.859-.233-1.734-.45-2.6-.648l.2-.875c.875.2,1.759.422,2.628.658Zm-147.093-.252c-.167-.9-.327-1.794-.469-2.665l.891-.145c.138.862.293,1.753.459,2.643Zm112.659-.378-.208-.872c.875-.208,1.772-.4,2.65-.573l.173.884C215.614,91.74,214.736,91.928,213.87,92.133Zm23.9-.031c-.1-.469-.211-.932-.318-1.391-.768-.085-1.545-.157-2.319-.217l.072-.894c.673.05,1.356.113,2.03.183l-.072-.3.872-.208c.208.859.409,1.737.614,2.631Zm5.322-.541c-.878-.167-1.762-.321-2.64-.456l.138-.887c.887.138,1.784.293,2.669.463Zm-23.967-.45-.138-.887c.891-.138,1.794-.261,2.684-.365l.1.894C220.894,90.852,220,90.972,219.123,91.11Zm5.315-.617-.072-.894c.9-.069,1.813-.123,2.71-.157l.035.9C226.222,90.374,225.322,90.424,224.438,90.493Zm8.025-.151c-.887-.035-1.791-.054-2.678-.054v-.9c.9,0,1.81.016,2.713.05Zm157.79-2.536-.869-.223c.227-.875.428-1.75.6-2.6l.884.179C390.69,86.028,390.485,86.918,390.252,87.806ZM100.346,87.17c-.123-.9-.23-1.806-.321-2.688l.894-.094c.088.872.2,1.769.318,2.662Zm136.179-.3q-.335-1.345-.661-2.609l.865-.227c.223.847.444,1.721.667,2.618Zm154.8-4.39-.887-.123c.126-.894.22-1.784.286-2.65l.894.066C391.549,80.656,391.451,81.569,391.322,82.478Zm-291.53-.7c-.063-.909-.11-1.822-.138-2.706l.9-.031c.028.878.072,1.778.138,2.678Zm135.383-.12c-.236-.872-.466-1.709-.692-2.5l-.022-.085.862-.249.025.085c.223.806.456,1.646.692,2.521Zm156.543-4.607h-.9v-.038c0-.884-.038-1.762-.1-2.618l.9-.069c.066.875.1,1.781.1,2.688Zm-158.045-.541c-.274-.85-.566-1.7-.869-2.536l.847-.3c.3.84.6,1.7.875,2.562Zm-133.155-.145-.9-.006c.006-.909.035-1.822.079-2.713l.9.047C100.554,74.57,100.525,75.47,100.519,76.363Zm289.85-4.591c-.154-.881-.346-1.75-.566-2.587l.865-.23c.227.859.425,1.756.585,2.662Zm-158.514-.3c-.33-.834-.677-1.665-1.032-2.47l.821-.359c.359.812.711,1.652,1.048,2.5ZM100.8,71.026l-.891-.088c.088-.9.2-1.81.334-2.694l.887.135C101,69.248,100.887,70.139,100.8,71.026ZM389,66.668a25.668,25.668,0,0,0-1.045-2.423l.8-.4a26.684,26.684,0,0,1,1.086,2.508Zm-159.3-.1c-.387-.8-.8-1.6-1.212-2.382l.793-.422c.422.79.834,1.6,1.227,2.414Zm-128.107-.821-.878-.176c.176-.887.384-1.775.611-2.647l.869.223C101.97,64.005,101.772,64.88,101.592,65.749Zm285.066-3.8A25.3,25.3,0,0,0,385.12,59.8l.7-.563a25.083,25.083,0,0,1,1.6,2.222Zm-159.47-.1c-.447-.771-.913-1.539-1.388-2.285l.755-.481c.482.755.957,1.536,1.41,2.313ZM102.933,60.588l-.856-.271c.274-.862.576-1.725.9-2.568l.84.321C103.5,58.895,103.2,59.744,102.933,60.588Zm280.424-2.75c-.611-.614-1.268-1.212-1.954-1.775l.57-.7c.708.585,1.391,1.2,2.02,1.835Zm-159.039-.5c-.5-.73-1.032-1.457-1.564-2.162l.714-.541c.541.714,1.073,1.454,1.586,2.19ZM104.827,55.6l-.821-.365c.365-.818.758-1.643,1.174-2.451l.8.406C105.573,53.988,105.186,54.8,104.827,55.6Zm274.455-1.127c-.714-.488-1.476-.96-2.256-1.4l.441-.78c.806.453,1.586.938,2.319,1.438ZM221.1,53.079c-.56-.686-1.149-1.372-1.734-2.03l.67-.6c.595.667,1.186,1.359,1.759,2.058Zm153.563-1.227c-.78-.371-1.6-.727-2.442-1.061l.334-.834c.856.34,1.7.7,2.5,1.083Zm-267.409-1-.777-.45c.444-.774.922-1.551,1.416-2.316l.752.488C108.16,49.318,107.691,50.086,107.254,50.848Zm262.461-.972c-.825-.274-1.681-.538-2.555-.784l.245-.865c.884.249,1.756.519,2.6.8Zm-152.169-.787c-.617-.636-1.256-1.271-1.9-1.885l.62-.651c.655.626,1.3,1.268,1.926,1.91Zm147.024-.664c-.847-.2-1.728-.387-2.618-.56l.173-.881c.9.176,1.794.368,2.65.57ZM359.311,47.4c-.859-.138-1.753-.267-2.65-.384l.116-.891c.906.116,1.81.249,2.678.387ZM354,46.7c-.865-.088-1.762-.173-2.672-.245l.076-.9c.916.076,1.819.157,2.688.249Zm-48.426-.135h-.057c-.985,0-1.85-.013-2.653-.041l.031-.9c.793.025,1.649.041,2.621.041h.057Zm2.7-.025-.013-.9.941-.016c.579-.009,1.168-.019,1.753-.025l.013.9c-.585.006-1.174.016-1.756.025Zm5.384-.057-.006-.9q1.3,0,2.688-.031l.016.9Q314.959,46.473,313.655,46.48Zm5.394-.094-.022-.9q1.317-.038,2.691-.079l.028.9C320.827,46.335,319.93,46.36,319.049,46.385Zm-208.9-.022-.733-.526c.179-.249.359-.5.544-.746.343-.478.711-.96,1.079-1.432l.7.557c-.362.459-.718.932-1.057,1.4C110.5,45.872,110.325,46.115,110.152,46.363Zm190-.013c-.982-.091-1.866-.217-2.713-.381l.17-.878c.818.157,1.674.277,2.625.365Zm48.5-.088c-.872-.054-1.775-.1-2.684-.138l.038-.9c.916.038,1.822.085,2.7.138Zm-24.213-.041-.025-.9q1.327-.042,2.691-.079l.028.9C326.221,46.168,325.324,46.2,324.436,46.222Zm5.381-.154-.022-.9q1.341-.033,2.7-.057l.016.9C331.608,46.03,330.708,46.045,329.818,46.067Zm13.46-.035c-.9-.025-1.8-.044-2.7-.053l.013-.9c.9.009,1.8.028,2.7.05Zm-8.078-.06-.009-.9q1.275-.014,2.562-.013h.142v.9l-.142,0C336.9,45.96,336.046,45.967,335.2,45.973Zm-121.524-.585c-.664-.582-1.35-1.168-2.042-1.734l.566-.7c.7.576,1.4,1.168,2.071,1.759Zm81.1-.11a14.531,14.531,0,0,1-2.533-1.13l.441-.78a13.9,13.9,0,0,0,2.379,1.061Zm-4.79-2.757a12.885,12.885,0,0,1-1.841-2.086l.733-.519a11.922,11.922,0,0,0,1.709,1.939Zm-176.52-.337-.664-.6c.6-.664,1.24-1.322,1.891-1.954l.626.642C114.68,40.888,114.057,41.533,113.466,42.184ZM209.531,42c-.7-.532-1.426-1.064-2.162-1.58l.519-.733c.743.522,1.476,1.061,2.187,1.6Zm-4.374-3.084c-.736-.481-1.5-.963-2.266-1.429l.472-.768c.771.469,1.539.957,2.285,1.448Zm-87.87-.434-.582-.683c.68-.582,1.394-1.155,2.121-1.706l.538.718C118.655,37.344,117.956,37.9,117.286,38.477Zm169.481-.441a19.843,19.843,0,0,1-.976-2.571l.859-.261a19.151,19.151,0,0,0,.928,2.455Zm-86.183-1.913c-.765-.437-1.555-.869-2.348-1.29l.419-.793c.8.425,1.6.862,2.373,1.3Zm-79.049-.862-.5-.746c.74-.5,1.511-.985,2.294-1.451l.459.771C123.02,34.295,122.262,34.773,121.535,35.261Zm74.313-1.649c-.787-.39-1.6-.78-2.42-1.155l.381-.818c.821.381,1.643.774,2.439,1.168Zm89.289-.806c-.054-.274-.1-.554-.151-.843-.1-.639-.17-1.268-.214-1.879l.9-.06c.038.582.107,1.186.2,1.794.047.277.1.551.148.818Zm-159.02-.277-.419-.793c.79-.415,1.6-.821,2.429-1.205l.381.812C127.7,31.72,126.894,32.123,126.117,32.529Zm64.866-1.168c-.812-.349-1.64-.7-2.477-1.035l.337-.831c.84.34,1.68.689,2.5,1.042Zm-60.032-1.1-.343-.828c.821-.34,1.674-.67,2.527-.979l.305.843C132.6,29.609,131.762,29.933,130.95,30.266Zm55.06-.919q-.538-.2-1.086-.406c-.466-.157-.947-.318-1.435-.472l.271-.856c.494.157.985.318,1.466.485l1.1.409Zm-50.037-.906-.271-.856c.85-.267,1.725-.529,2.6-.768l.236.865C137.675,27.922,136.813,28.177,135.973,28.441Zm44.948-.727c-.85-.233-1.721-.453-2.593-.658l.2-.875c.881.208,1.769.431,2.628.667Zm104.782-.3-.894-.091a13.765,13.765,0,0,1,.535-2.722l.862.264A12.7,12.7,0,0,0,285.7,27.412Zm-144.576-.387-.2-.875c.869-.2,1.762-.393,2.65-.57l.17.881C142.868,26.635,141.987,26.824,141.128,27.025Zm34.582-.532c-.869-.17-1.756-.33-2.64-.472l.145-.887c.894.145,1.791.305,2.666.478Zm-29.33-.5-.145-.884c.891-.145,1.791-.274,2.684-.387l.113.891C148.149,25.719,147.258,25.848,146.38,25.99Zm24.037-.352c-.875-.113-1.772-.214-2.662-.3l.085-.894c.9.085,1.806.189,2.691.3ZM151.7,25.316l-.085-.894c.894-.085,1.8-.154,2.7-.211l.05.9C153.477,25.165,152.576,25.234,151.7,25.316Zm13.387-.192c-.891-.057-1.791-.1-2.678-.129l.028-.9c.9.031,1.81.072,2.706.132Zm-8.037-.135-.028-.9c.856-.022,1.718-.038,2.571-.038l.142,0-.006.9h-.135C158.745,24.951,157.892,24.964,157.045,24.989ZM287.236,22.5l-.777-.45a12.332,12.332,0,0,1,1.658-2.238l.658.614A11.6,11.6,0,0,0,287.236,22.5Zm3.49-3.789-.522-.727a17.293,17.293,0,0,1,2.37-1.419l.4.806A16.3,16.3,0,0,0,290.726,18.708Zm4.683-2.351-.293-.85a25.346,25.346,0,0,1,2.637-.746l.2.875A24.523,24.523,0,0,0,295.409,16.357Zm5.155-1.2-.123-.887c.878-.123,1.794-.214,2.716-.267l.054.894C302.31,14.956,301.419,15.045,300.563,15.161Z" transform="translate(-6.61 5.864)" fill="#a3c4dc"/>
        <path id="Path_140" data-name="Path 140" d="M19.1,59.875a7.277,7.277,0,0,0-7.276,7.276c0,4.019,4.381,10.6,7.276,12.956.472.381,7.276-8.937,7.276-12.956A7.277,7.277,0,0,0,19.1,59.875Zm0,10.753a3.476,3.476,0,1,1,3.474-3.477A3.476,3.476,0,0,1,19.1,70.628Z" transform="translate(-11.825 104.344)" fill="#fcc342"/>
        <path id="Path_141" data-name="Path 141" d="M57.537,12.161a7.275,7.275,0,0,0-7.276,7.276c0,4.016,4.377,10.6,7.276,12.956.472.381,7.276-8.941,7.276-12.956A7.275,7.275,0,0,0,57.537,12.161Zm0,10.75a3.476,3.476,0,1,1,3.477-3.474A3.473,3.473,0,0,1,57.537,22.911Z" transform="translate(70.696 1.903)" fill="#fcc342"/>
        <path id="Path_142" data-name="Path 142" d="M112.643,7.692a7.276,7.276,0,0,0-7.279,7.276c0,4.019,4.381,10.6,7.279,12.956.466.381,7.273-8.937,7.273-12.956A7.275,7.275,0,0,0,112.643,7.692Zm0,10.75a3.474,3.474,0,1,1,3.474-3.474A3.474,3.474,0,0,1,112.643,18.442Z" transform="translate(189.002 -7.692)" fill="#fcc342"/>
        <path id="Path_143" data-name="Path 143" d="M121.675,49.061a7.278,7.278,0,0,0-7.279,7.276c0,4.019,4.381,10.6,7.279,12.956.466.381,7.273-8.937,7.273-12.956A7.275,7.275,0,0,0,121.675,49.061Zm0,10.75a3.474,3.474,0,1,1,3.471-3.474A3.476,3.476,0,0,1,121.675,59.811Z" transform="translate(208.393 81.127)" fill="#fcc342"/>
      </g>
      <g id="Group_73" data-name="Group 73" transform="translate(20.302 15.488)">
        <g id="Group_65" data-name="Group 65" transform="translate(26.68 3.087)">
          <path id="Path_144" data-name="Path 144" d="M117.946,90.7H34.586s2.3-31.844,11.247-44.835c17.342-25.175,73.5-19.573,78.288-4.486C128.169,54.145,117.946,90.7,117.946,90.7Z" transform="translate(-32.98 6.257)" fill="#fcc342"/>
          <path id="Path_145" data-name="Path 145" d="M97.775,78.181a23.84,23.84,0,1,1-23.844-23.84A23.842,23.842,0,0,1,97.775,78.181Z" transform="translate(13.298 83.31)" fill="#0a2e41"/>
          <path id="Path_146" data-name="Path 146" d="M77.738,69.6A12.384,12.384,0,1,1,65.352,57.216,12.386,12.386,0,0,1,77.738,69.6Z" transform="translate(21.876 91.889)" fill="#a3c4dc"/>
          <path id="Path_147" data-name="Path 147" d="M128.537,78.181A23.84,23.84,0,1,1,104.7,54.341,23.838,23.838,0,0,1,128.537,78.181Z" transform="translate(105.09 83.31)" fill="#0a2e41"/>
          <path id="Path_148" data-name="Path 148" d="M108.5,69.6A12.386,12.386,0,1,1,96.122,57.216,12.382,12.382,0,0,1,108.5,69.6Z" transform="translate(113.668 91.889)" fill="#a3c4dc"/>
          <path id="Path_149" data-name="Path 149" d="M75.7,58.368s18.342,3.219,33.8-2.2l-9.92,15.9-31.346.657Z" transform="translate(67.417 88.765)" fill="#e7aa39"/>
          <path id="Path_150" data-name="Path 150" d="M73.392,52.6s.745-5.518,2.339-7S73.392,42.3,73.392,42.3,67.659,50.8,70.631,53.564,73.392,52.6,73.392,52.6Z" transform="translate(72.026 47.396)" fill="#e7aa39"/>
          <rect id="Rectangle_13" data-name="Rectangle 13" width="57.319" height="22.697" rx="0.96" transform="translate(80.242 147.134)" fill="#0a2e41"/>
          <path id="Path_151" data-name="Path 151" d="M154.153,63.934c-3.072,18.238-10.613,43.959-10.613,43.959H63.224s-39.764-.263-4.39-29.421c16.9-13.928,0-18.987,40.517-28.684,27.84-6.657,52.688-6.605,55.186-2.86C156.01,49.137,155.528,55.791,154.153,63.934Z" transform="translate(-4.369 53.599)" fill="#fcc342"/>
          <path id="Path_152" data-name="Path 152" d="M133.69,93.758s10.832-29.848,4.669-32.4-35.473-2.976-43.337-2.976-6.928-10.828-9.135-10.609c-18.665,1.865-14.82,11.4-26.465,22.338C46.458,82.3,37.327,93.264,60.792,94.077,75.907,94.6,133.69,93.758,133.69,93.758Z" transform="translate(1.959 63.709)" fill="#f3f3f3"/>
          <g id="Group_51" data-name="Group 51" transform="translate(106.435 141.153)">
            <path id="Path_153" data-name="Path 153" d="M77.748,56.208a.984.984,0,0,1-.984.988h-11.2a.99.99,0,0,1-.988-.988h0a.99.99,0,0,1,.988-.988h11.2a.984.984,0,0,1,.984.988Z" transform="translate(-49.936 -55.22)" fill="#a3c4dc"/>
            <path id="Path_154" data-name="Path 154" d="M82.087,57.275a.984.984,0,0,1-.984.984h-17a.987.987,0,0,1-.988-.984h0a.985.985,0,0,1,.988-.988h17a.982.982,0,0,1,.984.988Z" transform="translate(-54.275 -52.036)" fill="#a3c4dc"/>
            <path id="Path_155" data-name="Path 155" d="M88.711,58.341a.984.984,0,0,1-.984.988H61.891a.991.991,0,0,1-.992-.988h0a.991.991,0,0,1,.992-.988H87.727a.984.984,0,0,1,.984.988Z" transform="translate(-60.899 -48.855)" fill="#a3c4dc"/>
          </g>
          <path id="Path_156" data-name="Path 156" d="M150.495,116.457c-21.669-1.028-48.756-.243-53.536,7.725-2.53,4.219-8.2,6.119-12.968,6.972a44.626,44.626,0,0,1-7.765.685c6.2-7.8,24.4-33.31,24.143-57.532S85.222,36.822,85.222,36.822s5.693-4.012,13.342,5.072c4.645,5.518,10.322,16.414,11.689,26.533.064.478.124.948.187,1.422.056.43.116.861.167,1.287.068.478.127.952.187,1.422.06.43.116.865.171,1.287.064.482.131.956.191,1.418.064.438.12.865.183,1.291.068.486.135.956.207,1.418.064.442.131.872.2,1.287.076.49.159.964.243,1.422s.159.876.243,1.291c.1.494.2.972.315,1.418s.219.884.343,1.291a8.1,8.1,0,0,0,.566,1.418c2.143,4.191,7.8,6.721,13.936,8.625h0c5.781,1.8,11.988,3.036,16.083,4.6C152.407,102.728,156.654,116.533,150.495,116.457Z" transform="translate(91.271 28.401)" fill="#e7aa39"/>
          <path id="Path_157" data-name="Path 157" d="M95.125,59.2l-.04.028c-2.123,1.49-10.04,3.665-12.051-8.123,0,0-2.131-15.669,10.777-12.908a1.669,1.669,0,0,1,.821.677C97.722,42.619,97.057,57.654,95.125,59.2Z" transform="translate(111.192 34.162)" fill="#fcc342"/>
          <path id="Path_158" data-name="Path 158" d="M88.829,58.448c-1.151-.355-2.163-1.761-2.857-3.8a20.609,20.609,0,0,1-.96-6.478c0-4.856,1.414-8.932,3.323-10.051,1.147,1.39,1.777,4.323,2.02,7.55C90.761,51.153,90.044,57.476,88.829,58.448Z" transform="translate(117.488 34.914)" fill="#a3c4dc"/>
          <path id="Path_159" data-name="Path 159" d="M144.679,71.708c-21.669-1.028-48.755-.243-53.536,7.725-2.53,4.219-8.2,6.119-12.968,6.972,3.514-4.673,11.211-17.079,14.243-23.967C97,52,97.425,49.433,117.337,51.7c0,0,16.235,1.315,20.33,2.88C146.591,57.979,150.838,71.783,144.679,71.708Z" transform="translate(97.087 73.151)" fill="#f3f3f3"/>
          <g id="Group_52" data-name="Group 52" transform="translate(106.435 94.585)">
            <path id="Path_160" data-name="Path 160" d="M68.122,44.145a.617.617,0,0,1-.614.618H61.517a.621.621,0,0,1-.618-.618h0a.617.617,0,0,1,.618-.614h5.992a.614.614,0,0,1,.614.614Z" transform="translate(-60.899 -43.531)" fill="#a3c4dc"/>
            <path id="Path_161" data-name="Path 161" d="M68.122,44.67a.614.614,0,0,1-.614.614H61.517a.617.617,0,0,1-.618-.614h0a.617.617,0,0,1,.618-.614h5.992a.614.614,0,0,1,.614.614Z" transform="translate(-60.899 -41.964)" fill="#a3c4dc"/>
            <path id="Path_162" data-name="Path 162" d="M68.122,45.194a.615.615,0,0,1-.614.618H61.517a.618.618,0,0,1-.618-.618h0a.617.617,0,0,1,.618-.614h5.992a.614.614,0,0,1,.614.614Z" transform="translate(-60.899 -40.401)" fill="#a3c4dc"/>
          </g>
          <path id="Path_163" data-name="Path 163" d="M111.111,59.231s5.275-3.41,1.769-6.737-15.259-4.426-29.358-2.749-17.374-4.2-21.3-9.769-6.442,10.757,2.263,15.96,25.35,3.625,33.64,3.629A121.837,121.837,0,0,0,111.111,59.231Z" transform="translate(38.729 37.035)" fill="#821b31"/>
          <path id="Path_164" data-name="Path 164" d="M58.635,53.658c-2.546,3-5.84,6.793-9.769,7.518a3.258,3.258,0,0,1-1.908-.211c-2.685-1.155-3.761-5.749-.43-7.307.088-.04.179-.084.271-.116C50.914,51.857,58.635,53.658,58.635,53.658Z" transform="translate(-3.541 78.778)" fill="#e7aa39"/>
          <path id="Path_165" data-name="Path 165" d="M48.145,56.8a5.574,5.574,0,0,1-1.187,3.629c-2.685-1.155-3.761-5.749-.43-7.307.088-.04.179-.084.271-.116A5.424,5.424,0,0,1,48.145,56.8Z" transform="translate(-3.541 79.318)" fill="#821b31"/>
          <g id="Group_53" data-name="Group 53" transform="translate(197.628 96.828)">
            <path id="Path_166" data-name="Path 166" d="M90.892,49.592H84.5a.709.709,0,1,1,0-1.418h5.824A8.1,8.1,0,0,0,90.892,49.592Z" transform="translate(-83.789 -31.919)" fill="#fcc342"/>
            <path id="Path_167" data-name="Path 167" d="M89.984,48.912H84.5a.709.709,0,1,1,0-1.418h5.167C89.769,47.988,89.872,48.466,89.984,48.912Z" transform="translate(-83.789 -33.949)" fill="#fcc342"/>
            <path id="Path_168" data-name="Path 168" d="M89.426,48.235H84.5a.711.711,0,1,1,0-1.422h4.681C89.259,47.3,89.343,47.777,89.426,48.235Z" transform="translate(-83.789 -35.981)" fill="#fcc342"/>
            <path id="Path_169" data-name="Path 169" d="M88.98,47.552H84.5a.709.709,0,1,1,0-1.418h4.271C88.841,46.62,88.908,47.09,88.98,47.552Z" transform="translate(-83.789 -38.007)" fill="#fcc342"/>
            <path id="Path_170" data-name="Path 170" d="M88.59,46.872H84.5a.709.709,0,1,1,0-1.418h3.9C88.462,45.936,88.53,46.41,88.59,46.872Z" transform="translate(-83.789 -40.036)" fill="#fcc342"/>
            <path id="Path_171" data-name="Path 171" d="M88.227,46.2H84.5a.711.711,0,1,1,0-1.422H88.04C88.108,45.252,88.167,45.726,88.227,46.2Z" transform="translate(-83.789 -42.065)" fill="#fcc342"/>
            <path id="Path_172" data-name="Path 172" d="M87.873,45.516H84.5a.711.711,0,1,1,0-1.422h3.183C87.749,44.572,87.809,45.042,87.873,45.516Z" transform="translate(-83.789 -44.094)" fill="#fcc342"/>
          </g>
          <g id="Group_55" data-name="Group 55" transform="translate(0 97.286)">
            <path id="Path_173" data-name="Path 173" d="M34.183,45.162a.952.952,0,0,1,.952-.952h84.236a.956.956,0,0,1,.96.952h0a.957.957,0,0,1-.96.956H35.135a.953.953,0,0,1-.952-.956Z" transform="translate(-34.183 -44.206)" fill="#a3c4dc"/>
            <path id="Path_174" data-name="Path 174" d="M54.31,56.9a.954.954,0,0,1-.956-.956V45.165a.956.956,0,0,1,1.912,0V55.942A.956.956,0,0,1,54.31,56.9Z" transform="translate(23.022 -44.209)" fill="#a3c4dc"/>
            <g id="Group_54" data-name="Group 54" transform="translate(2.123 0.956)">
              <path id="Path_175" data-name="Path 175" d="M36.306,46.369a.793.793,0,0,1-.793.8h0a.8.8,0,0,1-.8-.8V45.246a.8.8,0,0,1,.8-.8h0a.793.793,0,0,1,.793.8Z" transform="translate(-34.716 -44.449)" fill="#a3c4dc"/>
              <path id="Path_176" data-name="Path 176" d="M40.346,46.369a.8.8,0,0,1-.793.8h0a.8.8,0,0,1-.8-.8V45.246a.8.8,0,0,1,.8-.8h0a.8.8,0,0,1,.793.8Z" transform="translate(-22.661 -44.449)" fill="#a3c4dc"/>
              <path id="Path_177" data-name="Path 177" d="M44.385,46.369a.793.793,0,0,1-.793.8h0a.8.8,0,0,1-.8-.8V45.246a.8.8,0,0,1,.8-.8h0a.793.793,0,0,1,.793.8Z" transform="translate(-10.609 -44.449)" fill="#a3c4dc"/>
              <path id="Path_178" data-name="Path 178" d="M48.428,46.369a.8.8,0,0,1-.8.8h0a.8.8,0,0,1-.8-.8V45.246a.8.8,0,0,1,.8-.8h0a.8.8,0,0,1,.8.8Z" transform="translate(1.443 -44.449)" fill="#a3c4dc"/>
              <path id="Path_179" data-name="Path 179" d="M52.468,46.369a.8.8,0,0,1-.8.8h0a.8.8,0,0,1-.8-.8V45.246a.8.8,0,0,1,.8-.8h0a.8.8,0,0,1,.8.8Z" transform="translate(13.499 -44.449)" fill="#a3c4dc"/>
              <path id="Path_180" data-name="Path 180" d="M56.508,46.369a.8.8,0,0,1-.8.8h0a.8.8,0,0,1-.793-.8V45.246a.8.8,0,0,1,.793-.8h0a.8.8,0,0,1,.8.8Z" transform="translate(25.554 -44.449)" fill="#a3c4dc"/>
            </g>
            <path id="Path_181" data-name="Path 181" d="M72.635,67.4a.747.747,0,0,1-.135-.012A37.057,37.057,0,0,1,49.325,55.24,31.6,31.6,0,0,1,43.3,45.471a.954.954,0,1,1,1.809-.61c.08.235,6.235,17.581,27.657,20.637a.957.957,0,0,1-.131,1.9Z" transform="translate(-7.131 -44.205)" fill="#a3c4dc"/>
          </g>
          <path id="Path_182" data-name="Path 182" d="M64.788,54.9c-2.239,0-4.689-.653-5.952-3.131S57.689,40.478,57.7,39.478a.958.958,0,0,1,1.916.036c-.068,3.582.127,9.844.916,11.386,1.86,3.645,8.259,1.41,8.322,1.39a.956.956,0,1,1,.645,1.8A15.561,15.561,0,0,1,64.788,54.9Z" transform="translate(35.974 36.164)" fill="#a3c4dc"/>
          <path id="Path_183" data-name="Path 183" d="M154.257,135.811H52.108a2.388,2.388,0,1,1,0-4.777h101.1a114.885,114.885,0,0,0,19.474-30.481c9.864-23.6,6.8-44.023-9.107-60.687a2.39,2.39,0,0,1,3.458-3.3c17.123,17.94,20.585,40.744,10.008,65.95a117.026,117.026,0,0,1-21.063,32.565A2.392,2.392,0,0,1,154.257,135.811Z" transform="translate(12.161 28.067)" fill="#fcc342"/>
          <path id="Rectangle_14" data-name="Rectangle 14" d="M.761,0h9.313a.758.758,0,0,1,.758.758V7.051a.758.758,0,0,1-.758.758H.758A.758.758,0,0,1,0,7.052V.761A.761.761,0,0,1,.761,0Z" transform="translate(173.406 58.541) rotate(-10.962)" fill="#fcc342"/>
          <path id="Path_184" data-name="Path 184" d="M86.755,39.714a5.1,5.1,0,1,1-5.1-5.1A5.1,5.1,0,0,1,86.755,39.714Z" transform="translate(92.268 24.437)" fill="#821b31"/>
          <path id="Path_185" data-name="Path 185" d="M84.624,62.055a.957.957,0,0,1-.131-1.9c.267-.036,27.19-3.837,44.218-1.912,3.757.4,4.741-.04,5-.335.331-.39.012-1.574-.291-2.717a.955.955,0,1,1,1.845-.494c.454,1.7.884,3.3-.1,4.45-.948,1.108-2.876,1.394-6.657,1-16.784-1.9-43.469,1.868-43.74,1.908C84.715,62.051,84.672,62.055,84.624,62.055Z" transform="translate(113.482 82.242)" fill="#a3c4dc"/>
          <path id="Path_186" data-name="Path 186" d="M112.827,63.735a5.575,5.575,0,0,1-4.1-5.335c-.478-5.98-2.55-9.167-11.948-8.534-8.123.554-22.545,4.8-38.756-.279,28.035-5.785,52.688-6.605,55.186-2.86C114.684,48.939,114.2,55.592,112.827,63.735Z" transform="translate(36.957 53.797)" fill="#e7aa39"/>
          <path id="Path_188" data-name="Path 188" d="M90.354,45.672c-3.51,1.434-4.255,6.187-4.382,8.98a20.609,20.609,0,0,1-.96-6.478c0-4.856,1.414-8.932,3.323-10.051C89.482,39.512,90.111,42.445,90.354,45.672Z" transform="translate(117.488 34.914)" fill="#f3f3f3"/>
          <g id="Group_56" data-name="Group 56" transform="translate(128.729 108.258)">
            <path id="Path_189" data-name="Path 189" d="M78.9,53.642a6.2,6.2,0,1,1-6.2-6.2A6.2,6.2,0,0,1,78.9,53.642Z" transform="translate(-66.495 -45.543)" fill="#e7aa39"/>
            <path id="Path_190" data-name="Path 190" d="M79.077,53.17a6.2,6.2,0,1,1-6.2-6.207A6.2,6.2,0,0,1,79.077,53.17Z" transform="translate(-65.958 -46.963)" fill="#fcc342"/>
            <path id="Path_191" data-name="Path 191" d="M77.725,52.321a5.354,5.354,0,1,1-5.358-5.358A5.357,5.357,0,0,1,77.725,52.321Z" transform="translate(-64.94 -46.963)" fill="#f3f3f3"/>
          </g>
          <path id="Path_192" data-name="Path 192" d="M57.057,47.512s.705,6.486,7.072,8.446S90.3,56.651,93.59,57.1c0,0-1.514-1.948-14-1.7S61.583,55.918,57.057,47.512Z" transform="translate(34.072 62.933)" fill="#e7aa39"/>
          <path id="Path_193" data-name="Path 193" d="M87.241,41.36s-.323,5.613,2.41,7.259c0,0-.861.474-3.9-.259S83.369,43.961,87.241,41.36Z" transform="translate(114.008 44.576)" fill="#e7aa39"/>
          <path id="Path_210" data-name="Path 210" d="M45.968,54.938a16.965,16.965,0,0,1,7.725,0L55,53.787s-3.661-1.757-9.729-.251A3.654,3.654,0,0,1,45.968,54.938Z" transform="translate(-1.109 79.088)" fill="#fcc342"/>
          <g id="Group_64" data-name="Group 64" transform="translate(37.947)">
            <rect id="Rectangle_15" data-name="Rectangle 15" width="0.798" height="96.99" transform="translate(39.517 2.051)" fill="#a3c4dc"/>
            <path id="Path_211" data-name="Path 211" d="M84.022,19.789,43.708,32.629l40.314,8.7Z" transform="translate(-43.708 -19.789)" fill="#fcc342"/>
          </g>
        </g>
        <g id="Group_67" data-name="Group 67" transform="translate(134.237)">
          <g id="Group_66" data-name="Group 66">
            <path id="Path_212" data-name="Path 212" d="M81.808,33.487s-1.813,7.9-3.9,9.354-5.9,4.076-7.45,7.757,15.9,7.319,15.9,7.319,3.641-9.725,6.2-14.86,8.211-10.709,8.211-10.709l3.346-5.143S99.573,21,96.051,21.415s-8.326,5.49-7.82,10.824S81.808,33.487,81.808,33.487Z" transform="translate(-33.776 -11.911)" fill="#df6b49"/>
            <path id="Path_213" data-name="Path 213" d="M88.72,34.823l-6.259,20.94,19.748-2.49-6.37,6.769-20.6,3.769-4.661-5.677s.438-9.944,1.53-12.856c.59-1.578,1.849-9.338,5.068-12.92C79.9,29.326,90.134,26.808,88.72,34.823Z" transform="translate(-33.142 12.117)" fill="#e7aa39"/>
            <path id="Path_214" data-name="Path 214" d="M89.457,23.95a2.381,2.381,0,0,1,2.9,2.267c.382,2.813-.912,8.187-1.3,9.171s2.012,4.47,2.422,4.972-.442,1.988-1.052,2.928a10.991,10.991,0,0,1-4.49,4.335c-2.773,1.446-11.884-2.151-12.406-2.713s-.227-15.219.9-16.179,7.633-6.183,8.366-6.243,2.167.984,2.434,1.1S89.457,23.95,89.457,23.95Z" transform="translate(-19.111 -8.658)" fill="#df6b49"/>
            <path id="Path_215" data-name="Path 215" d="M61.357,44.531s-3.3,17.657,18.6,17.27c38.453-.677,37.573-.61,37.573-.61l-10.808,46.74,3.817-.594,25.023-58.52S68.3,23.835,61.357,44.531Z" transform="translate(-61.181 32.643)" fill="#fcc342"/>
            <path id="Path_216" data-name="Path 216" d="M77.345,52.311l8.593-.861L79.895,69.621s7.649-3.522,9.765-1.068.857,7.749-5.609,7.5-12.637-.339-12.637-.339Z" transform="translate(-30.648 77.771)" fill="#0a2e41"/>
            <path id="Path_217" data-name="Path 217" d="M61.575,69.606s7.358-8.848,29.8,2.1c5.514,2.689,21.007-34.473,21.007-34.473S106.267,27,101.351,27.03,61.575,69.606,61.575,69.606Z" transform="translate(-60.004 4.903)" fill="#fcc342"/>
            <path id="Path_218" data-name="Path 218" d="M65.278,70.821l28.133-7.647L80.6,60.785,83.945,28.48Z" transform="translate(-48.953 9.23)" fill="#e7aa39"/>
            <path id="Path_219" data-name="Path 219" d="M105.38,65.223,66.4,70.633,80.584,32.216s1.944-6.378,7.315-4.709,10.693,3.944-5.729,31.975l24.406.394Z" transform="translate(-45.591 5.494)" fill="#fcc342"/>
            <path id="Path_220" data-name="Path 220" d="M87.116,40a5.588,5.588,0,1,1-5.968-5.175A5.586,5.586,0,0,1,87.116,40Z" transform="translate(-17.096 28.129)" fill="#df6b49"/>
            <path id="Path_221" data-name="Path 221" d="M83.436,39.142a3.673,3.673,0,1,1-3.924-3.4A3.666,3.666,0,0,1,83.436,39.142Z" transform="translate(-16.66 30.866)" fill="#821b31"/>
            <path id="Path_222" data-name="Path 222" d="M73.362,23.879s-2.769,6.263-1.275,9.462,2.287,7.008,5.6,6.123,1.657-4.187,1.657-4.187l5.49-5.2a9.316,9.316,0,0,1,.578,2.98c.155,2.088.359,3.378.657,2.8a16.22,16.22,0,0,1,4.235-6.422c2.936-2.562-3.705-6.629-3.705-6.629l-4-.717Z" transform="translate(-29.956 -9.837)" fill="#821b31"/>
            <path id="Path_223" data-name="Path 223" d="M79.927,29.105s1.876-6.593-2.43-6.287-5.864,9.3-2.235,10.7,3.848-.761,4.51-3.362Z" transform="translate(-25.206 -7.694)" fill="#df6b49"/>
            <path id="Path_224" data-name="Path 224" d="M82.615,21.137s1.45,2.952,2.657,5.032-.454,3.912-1.657,4.446-5.41-1.972-5.41-1.972.546-3.92.829-4.028S82.615,21.137,82.615,21.137Z" transform="translate(-10.381 -12.681)" fill="#821b31"/>
            <path id="Path_225" data-name="Path 225" d="M112.864,38.621l-1.231-.092-5.43-.406-6.836-.506-1.741-.127-4.163-.311-.594-.052-5.53-.406-5.522-.41-1.2,0-11.414-.024s-1.2-1.191.713-1.359c1.629-.139,8.565-.283,10.589-.323.386-2.737,1.378-8.41,3.37-12.083,1.116-2.044,3.761-3.307,8.434-3.478v-.008c.753-.024,1.55-.024,2.4,0,7.761.255,13.039,3.586,15.884,7.992l-.028.446-.442,6.96-.084,1.363,1.422.219,1.183.171.482.072A15.7,15.7,0,0,1,112.864,38.621Z" transform="translate(-38.339 -19.015)" fill="#fcc342"/>
            <path id="Path_226" data-name="Path 226" d="M84.991,40.152l2.119-2.008L73.067,26.268l-1.785,3.749S81.106,38.471,84.991,40.152Z" transform="translate(-31.039 2.63)" fill="#fcc342"/>
          </g>
          <path id="Path_227" data-name="Path 227" d="M67.835,62.935l.219-.55c.486-1.247,11.9-30.545,13.027-32.453,1.235-2.076,4.558-1.952,4.7-1.944l-.036.769c-.032,0-3-.112-4,1.57C80.731,32.04,70.6,57.975,68.982,62.11l30.031-1.366.036.769Z" transform="translate(-41.324 7.75)" fill="#fff"/>
          <path id="Path_228" data-name="Path 228" d="M106.166,107.6l-.737-.227,13.434-43.5c-3.8-.223-28.76-1.613-41.955-.454-9.263.817-12.382-1.378-13.366-3.362a4.819,4.819,0,0,1,1.12-5.307c2.829-3.1,17.569-21.724,17.717-21.916l.606.482c-.147.183-14.908,18.832-17.752,21.956a4.062,4.062,0,0,0-1,4.442c.717,1.45,3.311,3.757,12.605,2.94,14.294-1.259,42.278.462,42.56.478l.49.032-.143.47Z" transform="translate(-55.342 22.219)" fill="#fff"/>
          <path id="Path_229" data-name="Path 229" d="M79.435,31.79a22.3,22.3,0,0,0,.04,3.131L72.4,34.61l-.633-.028c.386-2.737,1.378-8.41,3.37-12.083,1.116-2.044,3.761-3.307,8.434-3.478A29.426,29.426,0,0,0,79.435,31.79Z" transform="translate(-29.594 -18.995)" fill="#e7aa39"/>
        </g>
        <g id="Group_68" data-name="Group 68" transform="translate(0 25.196)">
          <path id="Path_230" data-name="Path 230" d="M82.6,59.142H31.014a.512.512,0,1,1,0-1.024H82.6a.512.512,0,1,1,0,1.024Z" transform="translate(-18.492 72.472)" fill="#a3c4dc"/>
          <path id="Path_231" data-name="Path 231" d="M71.911,57.617H34.6a.512.512,0,1,1,0-1.024H71.911a.512.512,0,1,1,0,1.024Z" transform="translate(-7.801 67.921)" fill="#a3c4dc"/>
          <path id="Path_232" data-name="Path 232" d="M93.97,56.091H28a.512.512,0,1,1,0-1.024H93.97a.512.512,0,1,1,0,1.024Z" transform="translate(-27.486 63.368)" fill="#a3c4dc"/>
          <path id="Path_233" data-name="Path 233" d="M74.848,54.569H33.957a.514.514,0,0,1,0-1.028H74.848a.514.514,0,0,1,0,1.028Z" transform="translate(-9.711 58.814)" fill="#a3c4dc"/>
          <path id="Path_234" data-name="Path 234" d="M69.35,53.04H40.9a.512.512,0,1,1,0-1.024H69.35a.512.512,0,1,1,0,1.024Z" transform="translate(10.998 54.264)" fill="#a3c4dc"/>
          <path id="Path_235" data-name="Path 235" d="M79.478,32.465H61.387a.512.512,0,1,1,0-1.024H79.478a.512.512,0,1,1,0,1.024Z" transform="translate(72.139 -7.131)" fill="#a3c4dc"/>
          <path id="Path_236" data-name="Path 236" d="M95.162,30.943H57.848a.514.514,0,1,1,0-1.028H95.162a.514.514,0,0,1,0,1.028Z" transform="translate(61.579 -11.684)" fill="#a3c4dc"/>
          <path id="Path_237" data-name="Path 237" d="M109.112,29.414H55.146a.512.512,0,1,1,0-1.024h53.966a.512.512,0,1,1,0,1.024Z" transform="translate(53.516 -16.235)" fill="#a3c4dc"/>
          <path id="Path_238" data-name="Path 238" d="M101,27.885H60.112a.51.51,0,1,1,0-1.02H101a.51.51,0,1,1,0,1.02Z" transform="translate(68.334 -20.786)" fill="#a3c4dc"/>
          <path id="Path_239" data-name="Path 239" d="M91.833,26.363H63.376a.512.512,0,1,1,0-1.024H91.833a.512.512,0,0,1,0,1.024Z" transform="translate(78.074 -25.339)" fill="#a3c4dc"/>
          <path id="Path_240" data-name="Path 240" d="M98.325,51.514H32.355a.512.512,0,0,1,0-1.024h65.97a.512.512,0,0,1,0,1.024Z" transform="translate(-14.479 49.71)" fill="#a3c4dc"/>
          <path id="Path_241" data-name="Path 241" d="M96.028,49.989H30.058a.512.512,0,1,1,0-1.024h65.97a.512.512,0,0,1,0,1.024Z" transform="translate(-21.345 45.16)" fill="#a3c4dc"/>
        </g>
        <g id="Group_72" data-name="Group 72" transform="translate(92.388 128.783)">
          <g id="Group_70" data-name="Group 70">
            <path id="Path_242" data-name="Path 242" d="M71.336,53.5c1.566,2.928-1.705,7.725-7.307,10.713s-11.4,3.044-12.964.116,1.705-7.721,7.307-10.709S69.779,50.575,71.336,53.5Z" transform="translate(-50.676 -51.34)" fill="#821b31"/>
            <g id="Group_69" data-name="Group 69" transform="translate(2.386 2.335)">
              <path id="Path_243" data-name="Path 243" d="M53.3,57.985l-1.359-2.542-.327.175c-.044-.044-.088-.1-.127-.143a1.533,1.533,0,0,1-.092-.151,1.046,1.046,0,0,1-.076-.163,1.43,1.43,0,0,1-.048-.187l.008-.008,2.972-1.582.614,1.151a.794.794,0,0,1-.151.155,1.452,1.452,0,0,1-.179.123,1.721,1.721,0,0,1-.207.084.72.72,0,0,1-.219.036l-.243-.462-1,.53.482.9,1.243-.665a1.1,1.1,0,0,1,.143.159c.04.06.072.112.1.163a1.443,1.443,0,0,1,.08.175c.02.068.04.135.056.2l-1.243.665.474.892.41-.215a1.471,1.471,0,0,1,.131.143c.032.052.068.1.092.147a1.552,1.552,0,0,1,.076.163l.048.191-1.641.876a1.466,1.466,0,0,1-.128-.147.636.636,0,0,1-.1-.151.879.879,0,0,1-.072-.163.859.859,0,0,1-.052-.187Z" transform="translate(-51.275 -47.575)" fill="#f3f3f3"/>
              <path id="Path_244" data-name="Path 244" d="M54.158,57.284,52.8,54.742l-.327.175c-.048-.048-.088-.1-.127-.143a1.051,1.051,0,0,1-.167-.315c-.02-.06-.036-.123-.052-.187l2-1.068a1.611,1.611,0,0,1,.57-.183,1.335,1.335,0,0,1,.522.04,1.212,1.212,0,0,1,.446.239,1.446,1.446,0,0,1,.323.4,1.7,1.7,0,0,1,.108.279,1.24,1.24,0,0,1,.06.347,1.447,1.447,0,0,1-.044.382,1.02,1.02,0,0,1-.187.378l1.052.7.351-.187a1.061,1.061,0,0,1,.127.143.77.77,0,0,1,.1.147,1.012,1.012,0,0,1,.072.163,1.136,1.136,0,0,1,.052.191l-1.024.546L55.1,55.658l-.526.279.47.876.374-.2a1.062,1.062,0,0,1,.127.143,1.374,1.374,0,0,1,.1.147.775.775,0,0,1,.068.167,1.44,1.44,0,0,1,.052.187l-1.586.849a1.127,1.127,0,0,1-.131-.147,1.1,1.1,0,0,1-.1-.151,1.468,1.468,0,0,1-.068-.159,1.428,1.428,0,0,1-.048-.187Zm.657-2.339a.5.5,0,0,0,.247-.761.527.527,0,0,0-.319-.287.573.573,0,0,0-.434.076l-.61.327.514.968Z" transform="translate(-48.736 -48.686)" fill="#f3f3f3"/>
              <path id="Path_245" data-name="Path 245" d="M55.121,57.038,53.766,54.5l-.327.171a1.375,1.375,0,0,1-.127-.143,1.1,1.1,0,0,1-.1-.151.67.67,0,0,1-.068-.163.963.963,0,0,1-.052-.191L56.129,52.4l.566,1.06a.709.709,0,0,1-.151.159,1.4,1.4,0,0,1-.179.12,1.117,1.117,0,0,1-.207.088.715.715,0,0,1-.215.036l-.2-.378-1.052.562.454.849,1.374-.737a1.08,1.08,0,0,1,.139.163.992.992,0,0,1,.1.163.893.893,0,0,1,.076.175,1.454,1.454,0,0,1,.06.2l-1.382.733.494.92,1.084-.578-.235-.434a.714.714,0,0,1,.151-.159,1.367,1.367,0,0,1,.187-.123,1.076,1.076,0,0,1,.2-.084.677.677,0,0,1,.215-.036l.594,1.119-3.064,1.637a1.157,1.157,0,0,1-.131-.147,1.585,1.585,0,0,1-.1-.151.968.968,0,0,1-.072-.159c-.02-.064-.032-.124-.048-.187Z" transform="translate(-45.85 -50.497)" fill="#f3f3f3"/>
              <path id="Path_246" data-name="Path 246" d="M56.017,56.559l-1.359-2.538-.323.171a1.061,1.061,0,0,1-.127-.143,1.262,1.262,0,0,1-.219-.5l3.036-1.621.57,1.064a.794.794,0,0,1-.151.155,1.326,1.326,0,0,1-.179.124,2.038,2.038,0,0,1-.207.084.74.74,0,0,1-.219.036l-.2-.374-1.048.562.45.845,1.378-.737a1.874,1.874,0,0,1,.139.163,1.284,1.284,0,0,1,.1.163,1.208,1.208,0,0,1,.08.175.813.813,0,0,1,.052.2l-1.374.733.494.924,1.08-.582-.231-.434a.7.7,0,0,1,.151-.159,1.262,1.262,0,0,1,.187-.124,1.108,1.108,0,0,1,.2-.084.76.76,0,0,1,.219-.036l.6,1.119L56.037,57.38a1.128,1.128,0,0,1-.127-.147,1.065,1.065,0,0,1-.1-.147,1.548,1.548,0,0,1-.068-.163c-.02-.06-.036-.124-.052-.187Z" transform="translate(-43.177 -51.926)" fill="#f3f3f3"/>
            </g>
          </g>
          <g id="Group_71" data-name="Group 71" transform="translate(7.06 4.777)">
            <path id="Path_247" data-name="Path 247" d="M56.443,68.956a4.519,4.519,0,0,1-1.55.12,3.4,3.4,0,0,1-1.211-.347,2.309,2.309,0,0,1-.821-.7,2.033,2.033,0,0,1-.378-.944,2.92,2.92,0,0,1,.064-1.191,5.413,5.413,0,0,1,.5-1.283,7.915,7.915,0,0,1,.869-1.283A10.179,10.179,0,0,1,56.5,61.112a9.673,9.673,0,0,1,1.574-.757c.139-.4.247-.725.331-.98a5.606,5.606,0,0,0,.187-.641,2.057,2.057,0,0,0,.072-.426,1.427,1.427,0,0,0-.016-.347c-.028-.2.016-.295.127-.3a.689.689,0,0,1,.4.183,2.3,2.3,0,0,1,.434.474,1.42,1.42,0,0,1,.251.578l.016.187a.68.68,0,0,1-.02.187,2.535,2.535,0,0,1-.092.3c-.04.127-.1.295-.179.506a1.843,1.843,0,0,1,.817.179,1.926,1.926,0,0,1,.574.426,2.11,2.11,0,0,1,.363.534,1.887,1.887,0,0,1,.159.474.838.838,0,0,1,0,.335q-.03.09-.084.1c-.032,0-.064-.016-.1-.064a.255.255,0,0,1-.064-.147.407.407,0,0,0-.2-.271,1.415,1.415,0,0,0-.466-.2,3.414,3.414,0,0,0-.661-.088,4,4,0,0,0-.773.052c-.131.371-.255.713-.363,1.024s-.2.61-.279.876a5.2,5.2,0,0,0-.159.769,2.468,2.468,0,0,0,0,.665c.036.219,0,.339-.123.359a.542.542,0,0,1-.394-.131,2,2,0,0,1-.442-.426A1.113,1.113,0,0,1,57.145,64a1.873,1.873,0,0,1,0-.558,4.371,4.371,0,0,1,.116-.514c.052-.171.108-.339.167-.506a3.145,3.145,0,0,0,.155-.53,8.36,8.36,0,0,0-2.8,2.358A5.237,5.237,0,0,0,54,65.693a2.894,2.894,0,0,0-.147,1.43,2.236,2.236,0,0,0,.227.737,1.592,1.592,0,0,0,1.187.857,2.428,2.428,0,0,0,.972-.052,5.366,5.366,0,0,0,1.9-.865,8.521,8.521,0,0,0,1.613-1.5,12.255,12.255,0,0,0,1.327-1.932A20.271,20.271,0,0,0,62.132,62.2a19.269,19.269,0,0,0,.781-2.227q.323-1.106.518-2.068a16.213,16.213,0,0,0,.263-1.713,5.054,5.054,0,0,0,0-1.167.544.544,0,0,0-.386-.506,1.49,1.49,0,0,0-.8.048,5.838,5.838,0,0,0-1.076.454,12.582,12.582,0,0,0-1.2.729c-.4.275-.793.57-1.171.876s-.717.606-1.012.888a6.95,6.95,0,0,0-.7.765c-.171.227-.251.4-.231.51a.241.241,0,0,0,.052.143.256.256,0,0,1,.064.124c.008.092-.044.124-.167.1a1.4,1.4,0,0,1-.434-.179,2.345,2.345,0,0,1-.462-.355.816.816,0,0,1-.259-.434.866.866,0,0,1,.167-.47,4.731,4.731,0,0,1,.546-.745,11.055,11.055,0,0,1,.892-.892,10.247,10.247,0,0,1,1.167-.9,11.169,11.169,0,0,1,1.378-.781,7.466,7.466,0,0,1,1.542-.546,3.781,3.781,0,0,1,1.57-.08,3.009,3.009,0,0,1,1.108.43,2.211,2.211,0,0,1,.673.673,1.99,1.99,0,0,1,.275.645,7.167,7.167,0,0,1,.032,1.693,11.224,11.224,0,0,1-.355,1.944,17.379,17.379,0,0,1-.709,2.064,18.4,18.4,0,0,1-1.032,2.06,16.275,16.275,0,0,1-1.327,1.932,12.991,12.991,0,0,1-1.586,1.677,10.272,10.272,0,0,1-1.809,1.291A7.477,7.477,0,0,1,56.443,68.956Z" transform="translate(-52.448 -49.029)" fill="#0a2e41"/>
            <path id="Path_248" data-name="Path 248" d="M60.657,55.848a.345.345,0,0,1,.128-.163.181.181,0,0,1,.151-.032.161.161,0,0,1,.1.116.415.415,0,0,1-.036.263,4.812,4.812,0,0,1-.227.5c-.124.263-.283.57-.482.924s-.414.733-.661,1.131a11.5,11.5,0,0,1-.773,1.119,7.013,7.013,0,0,1-.821.9,1.846,1.846,0,0,1-.8.466,1.178,1.178,0,0,1-.625-.06,1.41,1.41,0,0,1-.5-.347,1.679,1.679,0,0,1-.378-.817A2.962,2.962,0,0,1,55.7,58.7a5.465,5.465,0,0,1,.315-1.175,7.206,7.206,0,0,1,.55-1.112,9.415,9.415,0,0,1,.645-.952,4.667,4.667,0,0,1,.637-.681,1.322,1.322,0,0,1,.51-.307.7.7,0,0,1,.275-.008.622.622,0,0,1,.319.135,1.133,1.133,0,0,1,.311.359,2.254,2.254,0,0,1,.255.677,1.3,1.3,0,0,1-.044.677,4.189,4.189,0,0,1-.335.8,8.818,8.818,0,0,1-1.1,1.57,5.639,5.639,0,0,1-.558.558,1.234,1.234,0,0,1-.414.255,1.7,1.7,0,0,0-.052.442.523.523,0,0,0,.092.271c.056.072.163.088.327.048a1.746,1.746,0,0,0,.745-.51,9.4,9.4,0,0,0,.912-1.072,13.67,13.67,0,0,0,.888-1.39A10.3,10.3,0,0,0,60.657,55.848ZM58.59,56a.371.371,0,0,0-.183.155,2.43,2.43,0,0,0-.215.355c-.076.143-.147.307-.231.486s-.159.355-.235.534c-.175.442-.367.928-.562,1.466a5.366,5.366,0,0,0,.872-1.048,6.047,6.047,0,0,0,.522-.992,2.1,2.1,0,0,0,.175-.717C58.733,56.055,58.681,55.975,58.59,56Z" transform="translate(-42.858 -46.808)" fill="#0a2e41"/>
            <path id="Path_249" data-name="Path 249" d="M58.18,64.437a.865.865,0,0,1-.574-.024,1.072,1.072,0,0,1-.406-.291,1.437,1.437,0,0,1-.259-.442,2.949,2.949,0,0,1-.147-.466,2.193,2.193,0,0,1,.016-.769c.052-.339.135-.737.247-1.183s.239-.94.394-1.47.307-1.068.466-1.613.319-1.084.47-1.613.283-1.02.394-1.47.191-.841.243-1.179a2.032,2.032,0,0,0,.024-.749c-.02-.088.032-.139.151-.159a.809.809,0,0,1,.434.08,1.618,1.618,0,0,1,.5.382,1.5,1.5,0,0,1,.355.721,2.024,2.024,0,0,1-.048.769c-.076.359-.179.781-.319,1.263s-.3,1.016-.478,1.586-.359,1.139-.534,1.705-.343,1.112-.5,1.633-.271.98-.351,1.378a3.538,3.538,0,0,0-.1.92c.012.223.092.319.235.283.088-.02.239-.179.45-.47s.442-.661.7-1.1.51-.912.765-1.422a13.39,13.39,0,0,0,.637-1.462.31.31,0,0,1,.123-.163.179.179,0,0,1,.151-.028.149.149,0,0,1,.092.12.427.427,0,0,1-.032.259c-.02.076-.092.243-.2.506s-.255.57-.426.92-.363.729-.57,1.131-.43.773-.649,1.116a7.594,7.594,0,0,1-.653.876A1.229,1.229,0,0,1,58.18,64.437Z" transform="translate(-39.56 -51.162)" fill="#0a2e41"/>
            <path id="Path_250" data-name="Path 250" d="M61.817,57.674a.329.329,0,0,1,.128-.159.219.219,0,0,1,.155-.024.165.165,0,0,1,.1.116.415.415,0,0,1-.036.263c-.02.076-.092.239-.2.5s-.255.558-.418.908-.351.717-.55,1.112-.418.761-.637,1.1a6.2,6.2,0,0,1-.649.861,1.268,1.268,0,0,1-.6.422.987.987,0,0,1-.606-.032,1.214,1.214,0,0,1-.434-.331,1.809,1.809,0,0,1-.279-.5,2.439,2.439,0,0,1-.135-.526,2.116,2.116,0,0,1,.064-.809c.08-.319.175-.665.295-1.04s.231-.761.355-1.167a8.94,8.94,0,0,0,.275-1.2.615.615,0,0,0,0-.191,1.451,1.451,0,0,1,0-.183.359.359,0,0,1,.04-.143.239.239,0,0,1,.151-.088.579.579,0,0,1,.271.032.994.994,0,0,1,.327.207,1.455,1.455,0,0,1,.295.394,1.694,1.694,0,0,1,.179.606,1.869,1.869,0,0,1-.084.669c-.08.287-.171.594-.291.924s-.223.665-.343,1a7.027,7.027,0,0,0-.247.9,1.322,1.322,0,0,0,0,.618c.048.143.171.191.382.143.088-.02.235-.175.442-.458a12.344,12.344,0,0,0,.681-1.064c.243-.426.49-.892.737-1.4A12.837,12.837,0,0,0,61.817,57.674ZM60.124,55.9a.445.445,0,0,1-.259-.036,1.055,1.055,0,0,1-.3-.215,1.69,1.69,0,0,1-.275-.4,1.638,1.638,0,0,1-.167-.578,1.594,1.594,0,0,1,0-.586,1.285,1.285,0,0,1,.159-.414.908.908,0,0,1,.227-.259.737.737,0,0,1,.243-.116.846.846,0,0,1,.307,0,2.156,2.156,0,0,1,.41.088,1.334,1.334,0,0,1,.363.175.4.4,0,0,1,.183.271A.58.58,0,0,1,61,54.1a1.971,1.971,0,0,1-.135.251c-.052.088-.116.2-.179.315a2.732,2.732,0,0,0-.183.458c-.06.183-.108.323-.135.422a1.265,1.265,0,0,1-.072.219.233.233,0,0,1-.068.092A.329.329,0,0,1,60.124,55.9Z" transform="translate(-36.962 -50.34)" fill="#0a2e41"/>
            <path id="Path_251" data-name="Path 251" d="M59.3,56.479c-.02-.072.044-.127.183-.163a1.03,1.03,0,0,1,.49.012,1.514,1.514,0,0,1,.554.279,1.048,1.048,0,0,1,.367.629,1.7,1.7,0,0,1-.028.725,8.143,8.143,0,0,1-.255.94c-.108.331-.227.665-.351,1s-.235.633-.319.892a3.246,3.246,0,0,0-.163.625c-.02.151.024.215.128.191s.263-.171.47-.438a10.91,10.91,0,0,0,.677-1.016c.243-.406.486-.865.737-1.37s.458-1.008.645-1.506a9.952,9.952,0,0,0,.41-1.426,2.679,2.679,0,0,0,.032-1.115,1.643,1.643,0,0,0-.37-.761,1.841,1.841,0,0,0-.51-.406,1.924,1.924,0,0,0-.645-.2.061.061,0,0,1-.036.048.661.661,0,0,1-.2.072.4.4,0,0,1-.239,0,.147.147,0,0,1-.1-.112.175.175,0,0,1,.072-.147.713.713,0,0,1,.291-.127,2.152,2.152,0,0,1,.661.008,3.16,3.16,0,0,1,.96.279,3.208,3.208,0,0,1,.94.653,2.3,2.3,0,0,1,.6,1.131,2.166,2.166,0,0,1-.116,1.131,8.755,8.755,0,0,1-.618,1.386,15.146,15.146,0,0,1-.9,1.458c-.339.49-.657.932-.96,1.335s-.566.741-.789,1.016-.359.45-.4.518c-.06.1-.131.2-.2.315a.576.576,0,0,1-.367.223.718.718,0,0,1-.51-.052,1.331,1.331,0,0,1-.41-.331,2.28,2.28,0,0,1-.3-.474,2.677,2.677,0,0,1-.179-.494,1.539,1.539,0,0,1,0-.558c.036-.227.1-.482.167-.757s.155-.566.243-.868.163-.606.231-.9a5.846,5.846,0,0,0,.143-.872A2.679,2.679,0,0,0,59.3,56.479Z" transform="translate(-34.306 -50.917)" fill="#0a2e41"/>
            <path id="Path_252" data-name="Path 252" d="M64.924,54.85a.362.362,0,0,1,.128-.163.189.189,0,0,1,.151-.024c.052.008.084.048.1.112a.462.462,0,0,1-.028.263q-.042.114-.227.5c-.124.263-.287.57-.482.928s-.422.729-.665,1.131a12.568,12.568,0,0,1-.773,1.119,7.558,7.558,0,0,1-.825.892,1.824,1.824,0,0,1-.8.466,1.168,1.168,0,0,1-.622-.06,1.361,1.361,0,0,1-.5-.347A1.734,1.734,0,0,1,60,58.853a3.024,3.024,0,0,1-.036-1.139,5.218,5.218,0,0,1,.315-1.179,7.563,7.563,0,0,1,.546-1.112,9.105,9.105,0,0,1,.649-.948,4.514,4.514,0,0,1,.637-.685,1.316,1.316,0,0,1,.51-.307.8.8,0,0,1,.279-.008.721.721,0,0,1,.315.135,1.185,1.185,0,0,1,.311.359,2.312,2.312,0,0,1,.259.677,1.453,1.453,0,0,1-.048.677,4.461,4.461,0,0,1-.335.8,7.767,7.767,0,0,1-.514.825,8.53,8.53,0,0,1-.59.745,5.164,5.164,0,0,1-.554.554,1.114,1.114,0,0,1-.418.255,1.914,1.914,0,0,0-.048.446.5.5,0,0,0,.092.271c.06.072.163.088.327.052a1.85,1.85,0,0,0,.745-.51,9.41,9.41,0,0,0,.908-1.076,15.385,15.385,0,0,0,.892-1.386A10.374,10.374,0,0,0,64.924,54.85ZM62.852,55c-.052.012-.108.068-.179.159a2.128,2.128,0,0,0-.215.355c-.072.143-.151.307-.231.482s-.159.363-.239.542c-.175.438-.359.924-.558,1.462a5.485,5.485,0,0,0,.873-1.048,6,6,0,0,0,.518-.992A2.043,2.043,0,0,0,63,55.244C63,55.061,62.952,54.981,62.852,55Z" transform="translate(-30.121 -49.77)" fill="#0a2e41"/>
            <path id="Path_253" data-name="Path 253" d="M68.139,63.288c.032-.108.088-.147.163-.116a.256.256,0,0,1,.092.08,1.281,1.281,0,0,1-.219.51,1.733,1.733,0,0,1-.422.41,2.2,2.2,0,0,1-.745.307,2.629,2.629,0,0,1-1.048.012,3.048,3.048,0,0,1-1.112-.422,3.5,3.5,0,0,1-.976-.924,3.945,3.945,0,0,1-.637-1.47,4.847,4.847,0,0,1-.128-1.323,9.184,9.184,0,0,1,.143-1.335,9.949,9.949,0,0,1,.283-1.207c.112-.371.215-.685.307-.932a5.006,5.006,0,0,1-.641.4,3.672,3.672,0,0,1-.924.339.9.9,0,0,1-.3.02.69.69,0,0,1-.351-.139,1.3,1.3,0,0,1-.351-.406A2.713,2.713,0,0,1,61,56.32a3.663,3.663,0,0,1-.072-1.355,4.13,4.13,0,0,1,.347-1.155,3.065,3.065,0,0,1,.59-.841,1.409,1.409,0,0,1,.649-.4.875.875,0,0,1,.622.068.742.742,0,0,1,.378.522,1.5,1.5,0,0,1,.024.434,4.1,4.1,0,0,1-.076.542c-.044.2-.088.394-.147.6s-.12.4-.187.594q-.233.687-.538,1.446c.263-.223.5-.43.729-.625.191-.163.374-.319.554-.47s.291-.255.347-.311.135-.135.2-.207a.249.249,0,0,1,.291-.024l.3.159a1.905,1.905,0,0,1,.41.287,1.117,1.117,0,0,1,.291.394.575.575,0,0,1-.056.5c-.1.2-.235.486-.4.88A10.38,10.38,0,0,0,64.8,58.7a9.4,9.4,0,0,0-.275,1.586,5,5,0,0,0,.1,1.621,3.7,3.7,0,0,0,.494,1.243,2.41,2.41,0,0,0,.653.685,1.554,1.554,0,0,0,.7.263,1.731,1.731,0,0,0,.618-.024,1.538,1.538,0,0,0,.765-.359A1.163,1.163,0,0,0,68.139,63.288ZM61.9,56.057a.986.986,0,0,0,.1.279.787.787,0,0,0,.124.179.994.994,0,0,0,.147.143c.1-.363.2-.709.307-1.036s.179-.618.235-.868a3.2,3.2,0,0,0,.088-.586c0-.139-.052-.2-.155-.171a.593.593,0,0,0-.323.279,3,3,0,0,0-.3.566,3.511,3.511,0,0,0-.2.661A1.322,1.322,0,0,0,61.9,56.057Z" transform="translate(-27.256 -52.539)" fill="#0a2e41"/>
            <path id="Path_254" data-name="Path 254" d="M69.982,54.119a.326.326,0,0,1,.12-.163.183.183,0,0,1,.151-.028.157.157,0,0,1,.1.116.415.415,0,0,1-.036.263,4.264,4.264,0,0,1-.2.454c-.108.227-.243.5-.41.817s-.351.661-.554,1.024-.414.717-.633,1.048a10.453,10.453,0,0,1-.653.9,2.705,2.705,0,0,1-.6.586l-.02.06-.1.263a18.774,18.774,0,0,1-.853,1.944,14.4,14.4,0,0,1-1.032,1.717,8.1,8.1,0,0,1-1.02,1.279,2.471,2.471,0,0,1-1.219.677,1.106,1.106,0,0,1-.785-.127,1.322,1.322,0,0,1-.363-.311,1.437,1.437,0,0,1-.263-.49.5.5,0,0,1,.092-.378,3.474,3.474,0,0,1,.386-.526,7.922,7.922,0,0,1,.578-.618c.219-.219.446-.43.689-.637.554-.494,1.2-1.02,1.928-1.582a2.586,2.586,0,0,0,.171-.382q.1-.239.191-.514a.735.735,0,0,1-.307.2,1.223,1.223,0,0,1-.406.016,1.177,1.177,0,0,1-.43-.147,1.584,1.584,0,0,1-.394-.331,1.712,1.712,0,0,1-.3-.542,1.345,1.345,0,0,1-.016-.594c.04-.255.1-.534.163-.841s.155-.641.251-.988.171-.681.235-1.012a7.19,7.19,0,0,0,.139-.912,1.76,1.76,0,0,0-.056-.705c-.024-.072.016-.112.12-.112a.852.852,0,0,1,.386.1,1.671,1.671,0,0,1,.458.339,1.336,1.336,0,0,1,.367,1.267c-.048.3-.112.621-.2.976s-.183.717-.283,1.076-.179.693-.243.984a3.968,3.968,0,0,0-.084.7c0,.171.068.243.2.211s.287-.175.454-.434A5.824,5.824,0,0,0,66.2,57.8a13.531,13.531,0,0,0,.45-1.279c.139-.47.259-.932.351-1.386a8.61,8.61,0,0,0,.171-1.259,2.722,2.722,0,0,0-.076-.92c-.02-.052.016-.076.116-.06a.943.943,0,0,1,.347.163,2.173,2.173,0,0,1,.41.374,1.734,1.734,0,0,1,.327.578,2.292,2.292,0,0,1,.056.653,7.231,7.231,0,0,1-.1.956c-.068.363-.159.765-.271,1.207s-.243.908-.4,1.4c.159-.179.343-.426.562-.733s.438-.649.661-1.032.446-.769.653-1.175A12.083,12.083,0,0,0,69.982,54.119ZM62.448,64.4a1.262,1.262,0,0,0,.45-.227,3.32,3.32,0,0,0,.45-.414,5.621,5.621,0,0,0,.422-.538c.143-.2.275-.394.4-.594A15.36,15.36,0,0,0,65,61.067c-.594.5-1.119.96-1.582,1.382-.2.179-.386.363-.574.542s-.351.343-.486.5a4.158,4.158,0,0,0-.323.41c-.08.12-.108.2-.088.251a.4.4,0,0,0,.2.227A.5.5,0,0,0,62.448,64.4Z" transform="translate(-25.123 -51.478)" fill="#0a2e41"/>
          </g>
          <path id="Path_255" data-name="Path 255" d="M84.767,55.4s-2.538.267-7.171.5A53.93,53.93,0,0,0,58.76,60.865c-3.319,1.426-3.964.606-3.964.606s.817,1.821,5.119.04,10.733-4.817,17.824-5.127C83.879,55.9,84.692,56.036,84.767,55.4Z" transform="translate(-38.382 -39.216)" fill="#0a2e41"/>
        </g>
      </g>
    </g>
    <g id="Group_4" data-name="Group 4" transform="translate(81.566 278.45)">
      <path id="Path_4" data-name="Path 4" d="M1187.1,542.963H1157.32a1.322,1.322,0,0,1-.118-2.639c.039,0,.079,0,.118-.005h29.791c.146,0,.291.008.435.022a4.348,4.348,0,0,1,3.852,5.02,5.254,5.254,0,0,1-.233.889,6.5,6.5,0,0,1-5.456,4.324c-.226.024-.452.034-.678.036h-9.463c-.243.913-.485,1.825-.735,2.736-.064.226-.138.449-.224.667a6.717,6.717,0,0,1-5.822,4.231,5.457,5.457,0,0,1-.816,0,4.5,4.5,0,0,1-4.06-5.137,4.775,4.775,0,0,1,.1-.505l.978-3.648c.006-.024.013-.048.021-.072s.011-.034.02-.059v0l0-.01,0-.006c.015-.037.031-.074.049-.109l.016-.031,0-.006.007-.012,0-.005v0l0-.005,0,0,.005-.008,0-.006,0-.006.005-.008,0,0,0-.006a1.321,1.321,0,0,1,.588-.51l.006,0h0a1.3,1.3,0,0,1,.185-.065l.081-.019h0l.011,0h.012l.012,0a1.066,1.066,0,0,1,.112-.014l.043,0,.054,0h.015c2.7,0,15.349.019,18.8,0,.135,0,.27-.01.4-.025a3.859,3.859,0,0,0,2.8-1.74,3.877,3.877,0,0,0,.479-1.076l0,.008.013-.048a1.742,1.742,0,0,0,.041-.606,1.7,1.7,0,0,0-1.5-1.5,1.93,1.93,0,0,0-.2-.011Zm-14.272,7.647h-5.546c-.243.9-.486,1.795-.72,2.694a1.881,1.881,0,0,0-.045.66,1.855,1.855,0,0,0,1.708,1.644,2.805,2.805,0,0,0,.351,0,4.074,4.074,0,0,0,3.6-2.646c.045-.122.084-.246.118-.372l.531-1.98Zm-3.429-17.939c.008-.023.017-.046.026-.069a11.633,11.633,0,0,1,9.748-7.52c.365-.036.732-.055,1.1-.057,3.736-.01,7.471-.027,11.207,0a4.589,4.589,0,0,1,.5.036,4.347,4.347,0,0,1,3.717,5.067,5.473,5.473,0,0,1-.245.892,6.5,6.5,0,0,1-5.434,4.26c-.225.024-.451.034-.678.036h-30.077a1.344,1.344,0,0,1-.236-.021,1.322,1.322,0,0,1,.118-2.618c.04,0,.079,0,.119-.005Zm2.906,0s16.274,0,17.071,0l.122,0c.134-.006.268-.018.4-.038a3.852,3.852,0,0,0,3.156-2.8l0,.007.012-.048a1.729,1.729,0,0,0,.041-.606,1.689,1.689,0,0,0-.121-.467,1.7,1.7,0,0,0-.929-.921,1.734,1.734,0,0,0-.618-.126q-5.6-.041-11.2,0c-.284,0-.567.019-.849.049a9,9,0,0,0-6.808,4.383q-.164.278-.307.568l0,0Z" transform="translate(-1155.998 -525.01)" fill="#444251" fill-rule="evenodd"/>
      <path id="Path_5" data-name="Path 5" d="M1266.147,691.327l-.351,1.318h-2.74l.353-1.318Z" transform="translate(-1246.578 -665.727)" fill="#444251" fill-rule="evenodd"/>
    </g>
  </g>
</svg>
