<svg xmlns="http://www.w3.org/2000/svg" width="114.572" height="237.084" viewBox="0 0 114.572 237.084">
  <g id="Group_26" data-name="Group 26" transform="matrix(0.966, -0.259, 0.259, 0.966, -27.979, 24.324)">
    <g id="Group_23" data-name="Group 23" transform="translate(0 196.749)">
      <path id="Path_113" data-name="Path 113" d="M.032,7.971,33.225,0s8,7.668-15.958,13.186C-1.535,17.516.032,7.971.032,7.971Z" transform="translate(6.011 10.814)" fill="#ed914c"/>
      <path id="Path_114" data-name="Path 114" d="M.11,5.988,24.071,0S28.9,3.853,11.621,8.047C-1.934,11.336.11,5.988.11,5.988Z" transform="translate(11.669 13.974)" fill="#ffae55"/>
      <path id="Path_115" data-name="Path 115" d="M34.341,6.124,1.357,14.945S-6.824,7.478,16.986,1.351C35.679-3.459,34.341,6.124,34.341,6.124Z" transform="translate(3.676 0)" fill="#ffae55"/>
      <path id="Path_116" data-name="Path 116" d="M15.509,3.793a114.3,114.3,0,0,1-13.371.9c-4.3,3.941-.78,7.156-.78,7.156L34.342,3.028A5.09,5.09,0,0,0,33.634,0,90.138,90.138,0,0,1,15.509,3.793Z" transform="translate(3.676 3.096)" fill="#ed914c"/>
      <path id="Path_117" data-name="Path 117" d="M37.357,1.627C36.915-.19,35.314-1.351,17.915,3S-.365,9.137.078,10.954s2.043,2.979,19.436-1.372S37.8,3.443,37.357,1.627Z" transform="translate(3.091 6.291)" fill="#723828"/>
      <path id="Path_118" data-name="Path 118" d="M0,11.551l4.129,1.641L14.24,9.817l6.906-1.271,5.4-1.366L40.2,4.732,44.051,0,34.064,3.237l-6.913.843-6.5,1.907L10.1,5.78,6.022,10.313Z" transform="translate(0 2.546)" fill="#d6cb41"/>
      <path id="Path_119" data-name="Path 119" d="M27.874.812c-.089-.994-1.088-1.586-14.1,1.361S-.083,6.135.005,7.128,1.1,8.717,14.1,5.77,27.962,1.806,27.874.812Z" transform="translate(6.566 10.185)" fill="#894631"/>
      <path id="Path_120" data-name="Path 120" d="M0,3.061A29.083,29.083,0,0,1,5.255.839C7.039.467,13.01,0,13.01,0s-4.551,6.144-5.8,6.256S0,3.061,0,3.061Z" transform="translate(15.496 14.731)" fill="#ed914c"/>
      <path id="Path_121" data-name="Path 121" d="M0,3.06A29.07,29.07,0,0,1,5.255.839C7.039.468,13.01,0,13.01,0S8.458,6.144,7.21,6.257,0,3.06,0,3.06Z" transform="translate(15.205 14.066)" fill="#ffd13e"/>
    </g>
    <g id="Group_25" data-name="Group 25" transform="translate(21.969 0)">
      <path id="Path_122" data-name="Path 122" d="M0,20.372C28.557,46.948,35.477,75.921,39.09,99.345c8.006,51.9-24.019,100.434-33,102.549l2.951,3.455C112.71,131.388,18.694,0,18.694,0Z" transform="translate(12.828)" fill="#ffdeb3"/>
      <path id="Path_123" data-name="Path 123" d="M13.064,197.741c7.274-7.613,37.2-43.276,30.341-95.337C40.311,78.9,34.032,49.788,6.072,22.585L22.387,5.572C20.1,1.978,18.694,0,18.694,0L0,20.372C28.557,46.948,35.477,75.921,39.09,99.345c8.006,51.9-24.019,100.434-33,102.549l2.951,3.455c.01,0,.013-.014.028-.019Z" transform="translate(12.828)" fill="#f9ad8f"/>
      <path id="Path_124" data-name="Path 124" d="M.206,14.841,15.091,8.734,14.966,0,0,2.653Z" transform="translate(55.325 101.716)" fill="#f9ad8f"/>
      <path id="Path_125" data-name="Path 125" d="M65.017,104.3C61.762,48.813,24.525,0,24.525,0L0,23.261c23.815,22.158,41.3,49.072,44.725,81.145C50.777,103.948,59.26,103.293,65.017,104.3Z" transform="translate(6.997)" fill="#e2d0aa"/>
      <path id="Path_126" data-name="Path 126" d="M63.126,88.087c-4.268.018-9.619-1.29-13.253-1.013C47.942,69,42.328,57,33.529,46.009,47,38.416,45.9,31.958,39.91,18.588L26.18,2.274C25.125.79,24.525,0,24.525,0L0,23.261c23.815,22.158,41.3,49.072,44.725,81.145,6.052-.459,14.535-1.114,20.292-.111C64.94,103,63.239,89.378,63.126,88.087Z" transform="translate(6.997)" fill="#d3b48d"/>
      <path id="Path_127" data-name="Path 127" d="M2.07,17.882a2.517,2.517,0,0,0,2.842,2.062L25.517,16.95a2.593,2.593,0,0,0,2.2-2.247L29.28,2.155A1.917,1.917,0,0,0,27.141.014L2.309,3.093A2.632,2.632,0,0,0,.038,6.154Z" transform="translate(47.554 89.496)" fill="#e2d0aa"/>
      <g id="Group_24" data-name="Group 24" transform="translate(0 187.22)">
        <path id="Path_128" data-name="Path 128" d="M.021,29.692C.506,27.34,2.985,6.4,15.409,6.517c7.558.075,14.112-3.3,17.257-6.517L26.179,13.4c-4.035,3.243-6.794,11.212-8.321,11.928S-.673,33.056.021,29.692Z" transform="translate(1.91)" fill="#ffdeb3"/>
        <path id="Path_129" data-name="Path 129" d="M5.711,1.933C4,6.39,6.065,14.27,3.953,14.3.667,14.347.843,10.886.067,3.722S5.711,1.933,5.711,1.933Z" transform="translate(15.718 16.311)" fill="#ffdeb3"/>
        <path id="Path_130" data-name="Path 130" d="M8.046,3.346C6.034,7.679,4.473,13.051,2.4,12.8c-4.736-.57-1.3-5.245.513-9.815C5.672-3.939,8.046,3.346,8.046,3.346Z" transform="translate(0 24.519)" fill="#ffdeb3"/>
        <path id="Path_131" data-name="Path 131" d="M1.922,12.353C1.94,8.393,3.344,4.51.85,3.362-3.38,1.411,9.341-.521,13.527.128,20.852,1.271,1.922,12.353,1.922,12.353Z" transform="translate(6.045 6.517)" fill="#ffdeb3"/>
        <path id="Path_132" data-name="Path 132" d="M7.1,2.963c-1.435,4.511-2.281,9.988-4.384,10-4.818.039-2-4.989-.791-9.705C3.763-3.9,7.1,2.963,7.1,2.963Z" transform="translate(8.53 20.466)" fill="#ffdeb3"/>
      </g>
    </g>
  </g>
</svg>
