<svg xmlns="http://www.w3.org/2000/svg" width="40" height="40" viewBox="0 0 40 40">
  <g id="Group_3835" data-name="Group 3835" transform="translate(-33 -44)">
    <g id="_48061" data-name="48061" transform="translate(33 44)" fill="none" stroke="#d7d9db" stroke-width="1">
      <rect width="40" height="40" rx="12" stroke="none"/>
      <rect x="0.5" y="0.5" width="39" height="39" rx="11.5" fill="none"/>
    </g>
    <g id="Layer_2" data-name="Layer 2" transform="translate(41 52)">
      <g id="close">
        <rect id="Rectangle_48" data-name="Rectangle 48" width="24" height="24" transform="translate(24 24) rotate(180)" opacity="0"/>
        <path id="Path_112" data-name="Path 112" d="M13.41,12l4.3-4.29a1,1,0,1,0-1.42-1.42L12,10.59,7.71,6.29A1,1,0,0,0,6.29,7.71L10.59,12l-4.3,4.29a1,1,0,1,0,1.42,1.42L12,13.41l4.29,4.3a1,1,0,1,0,1.42-1.42Z"/>
      </g>
    </g>
  </g>
</svg>
