<svg xmlns="http://www.w3.org/2000/svg" width="18.002" height="20" viewBox="0 0 18.002 20">
  <g id="Iconly_Bulk_Bag" data-name="Iconly/Bulk/Bag" transform="translate(-2.999 -2)">
    <g id="Bag" transform="translate(3 2)">
      <path id="Combined_Shape" data-name="Combined Shape" d="M13.159,15H4.868c-1.88,0-3.175-.438-3.958-1.339C.091,12.72-.172,11.3.105,9.315L.883,3.12A4.083,4.083,0,0,1,2.076.707,2.736,2.736,0,0,1,3.932,0H14.087a2.667,2.667,0,0,1,1.827.731,4.391,4.391,0,0,1,1.23,2.389l.769,6.195a5.132,5.132,0,0,1-.906,4.23A4.914,4.914,0,0,1,13.159,15ZM11.885,3.329a.91.91,0,1,0,.884.91A.9.9,0,0,0,11.885,3.329Zm-5.789,0a.91.91,0,1,0,.884.91A.9.9,0,0,0,6.1,3.329Z" transform="translate(0 5)" fill="#fff"/>
      <path id="Path_34167" d="M9.974,4.774A.5.5,0,0,1,9.93,5H8.493a.649.649,0,0,1-.044-.226,3.484,3.484,0,0,0-6.968,0,.649.649,0,0,1,0,.226H.01a.649.649,0,0,1,0-.226,5,5,0,0,1,9.99,0Z" transform="translate(4)" fill="#fff" opacity="0.4"/>
    </g>
  </g>
</svg>
